<svg width="419" height="344" viewBox="0 0 419 344" fill="none" xmlns="http://www.w3.org/2000/svg">
<path d="M234.505 153.98L236.975 143.52L249.435 144.22L282.875 149.88L311.065 158.64L309.425 173.04L303.615 193.93L294.565 215.49L239.775 190.1L234.505 153.98Z" fill="#707F53"/>
<path d="M235.565 153.92C235.545 153.39 235.675 152.81 235.845 152.31C236.745 149.67 237.645 147.03 238.545 144.39C241.935 143.18 246.595 144.89 250.075 145.46C254.495 146.18 258.905 146.97 263.305 147.82C272.095 149.52 280.845 151.49 289.525 153.71C293.825 154.81 298.115 155.98 302.385 157.21C304.475 157.81 306.615 158.34 308.655 159.07C309.415 159.34 310.115 159.68 310.165 160.55C310.235 161.52 309.855 162.59 309.665 163.53C307.845 172.31 305.685 181.02 303.185 189.64C300.355 199.41 297.095 209.05 293.425 218.54C292.735 220.33 295.645 221.06 296.335 219.28C298.055 214.84 299.685 210.36 301.215 205.86C303.955 197.81 306.405 189.67 308.555 181.44C309.625 177.33 310.625 173.19 311.555 169.04C312.425 165.14 313.115 161.16 314.685 157.46C313.765 156.93 312.705 157.03 311.695 156.88C310.805 156.75 310.045 156.38 309.205 156.1C304.795 154.64 300.265 153.46 295.785 152.26C286.825 149.84 277.785 147.7 268.695 145.84C258.275 142.92 246.365 141.16 235.575 140.93C235.385 140.93 235.195 140.92 235.035 141.02C234.385 141.39 234.125 144.4 233.925 145.13C233.425 146.97 232.925 148.81 232.415 150.66C231.375 154.46 230.345 158.26 229.305 162.06C230.865 161.78 232.455 161.67 234.045 161.74C234.165 160.02 234.285 158.3 234.405 156.58C234.425 156.35 234.445 156.09 234.595 155.91C235.005 155.42 236.055 155.76 236.255 155.16C235.775 154.91 235.585 154.45 235.565 153.92Z" fill="#293534"/>
<path d="M81.9949 201.98C81.8849 201.91 81.7749 201.84 81.6749 201.73C77.2049 197.21 74.8749 191.03 75.0649 184.76C74.5149 185.23 73.9749 185.71 73.4549 186.22C71.2049 188.43 69.8249 190.8 69.0249 193.84C68.3349 196.46 67.8849 199.42 68.5249 202.09C68.5749 202.32 68.5849 202.53 68.5449 202.72C73.0249 202.48 77.5149 202.23 81.9949 201.98Z" fill="#EFDF9E"/>
<path d="M197.015 181.58C197.655 181.68 198.295 181.8 198.925 181.95C199.035 181.97 199.135 182.01 199.235 182.04C199.365 181.78 199.565 181.56 199.805 181.39C202.455 179.55 205.495 178.25 208.655 177.59C209.045 177.51 209.415 177.57 209.735 177.73C210.405 176.28 211.235 174.9 212.165 173.59C209.375 173.16 206.525 173.43 203.825 174.37C201.635 176.84 199.365 179.24 197.015 181.58Z" fill="#EFDF9E"/>
<path d="M196.165 157.17C191.485 158.04 186.685 158.36 181.925 158.27C174.135 158.12 166.485 156.48 160.115 152.13C160.785 154.01 161.725 155.81 162.785 157.48C164.755 160.55 167.225 163.3 169.975 165.75C171.335 164.06 172.785 162.44 174.345 160.92C175.095 160.19 176.135 160.45 176.705 161.22C177.665 162.53 178.685 163.79 179.755 165.01C180.255 165.58 181.945 167.87 182.535 167.79C182.805 167.75 183.215 167.27 183.455 167.09C183.845 166.79 184.245 166.49 184.635 166.19C185.285 165.69 185.945 165.19 186.595 164.69C187.905 163.69 189.215 162.69 190.525 161.69C191.155 161.21 192.225 161.57 192.575 162.23C193.625 164.2 194.925 165.97 196.445 167.57C198.945 165.71 201.245 163.63 203.355 161.32C204.055 160.55 205.175 160.88 205.715 161.62C206.465 162.68 207.225 163.73 207.975 164.79C207.985 164.81 207.995 164.82 208.005 164.84C211.745 160.15 215.215 155.28 218.425 150.23C215.415 151.65 212.215 152.72 209.045 153.68C204.815 154.97 200.515 156.37 196.165 157.17Z" fill="white"/>
<path d="M149.605 139.06C147.765 140.36 145.975 141.76 144.055 142.94C138.115 147.26 132.025 151.55 126.695 156.6C125.295 157.93 123.165 155.81 124.575 154.48C128.065 151.18 131.865 148.2 135.735 145.32C133.325 145.2 130.935 144.56 128.565 144.13C118.935 142.39 109.075 142.05 99.3349 143C106.365 148.23 112.985 153.98 119.135 160.22C119.735 160.83 119.675 161.73 119.135 162.34C108.855 174.07 100.305 187.23 93.6749 201.34C104.745 200.73 115.815 200.12 126.885 199.49C129.185 195.42 132.755 191.39 137.505 190.84C137.615 190.81 137.725 190.8 137.845 190.8C140.735 190.71 143.505 191.68 145.265 194.08C145.695 194.66 145.915 195.21 145.985 195.73C150.905 193.37 154.805 189.18 159.315 186.15C164.415 182.72 171.135 180.69 176.835 183.95C177.255 184.19 177.475 184.53 177.535 184.89C182.455 182.64 187.725 181.2 193.075 181.26C193.175 181.16 193.265 181.07 193.365 180.97C190.145 180.41 187.025 179.45 184.005 178.17C177.215 175.29 170.875 171.05 165.685 165.79C161.095 161.14 157.255 155.43 156.275 148.87C156.175 148.64 156.155 148.41 156.195 148.18C156.195 147.58 156.545 147.2 157.015 147.05C157.535 146.76 158.205 146.74 158.755 147.26C162.385 150.62 166.845 152.87 171.625 154.08C175.875 155.16 180.295 155.35 184.675 155.28C189.135 155.21 193.615 154.8 197.955 153.73C201.925 152.76 205.895 151.56 209.795 150.32C213.765 149.06 217.705 147.59 221.195 145.28C221.315 145.2 221.435 145.15 221.555 145.11C229.425 131.68 235.455 117.21 239.645 102.18C229.175 102.79 218.855 104.82 208.845 107.96C189.805 113.94 172.135 123.71 155.665 134.87C153.625 136.24 151.605 137.64 149.605 139.06ZM132.695 186.66C132.305 187.41 131.345 187.55 130.645 187.2C128.835 186.28 127.075 185.19 125.655 183.72C124.055 182.07 122.975 180.05 122.175 177.91C121.875 177.12 122.505 176.3 123.225 176.06C124.045 175.79 124.795 176.38 125.075 177.11C125.135 177.28 125.205 177.45 125.275 177.61C125.285 177.64 125.295 177.66 125.305 177.68C125.315 177.7 125.315 177.71 125.325 177.74C125.425 177.97 125.535 178.2 125.645 178.43C125.865 178.89 126.115 179.34 126.385 179.78C126.505 179.97 126.625 180.16 126.755 180.34C126.815 180.43 126.885 180.52 126.945 180.61C126.965 180.64 126.995 180.68 127.015 180.71C127.295 181.04 127.565 181.37 127.875 181.68C128.195 182 128.525 182.3 128.875 182.59C128.945 182.65 129.025 182.71 129.095 182.77C129.115 182.78 129.135 182.8 129.145 182.8C129.325 182.94 129.515 183.07 129.705 183.2C130.495 183.73 131.335 184.19 132.185 184.62C132.905 184.99 133.055 185.98 132.695 186.66ZM142.835 181.81C142.405 182.54 141.505 182.71 140.785 182.35C138.215 181.05 135.725 179.5 133.705 177.42C131.475 175.11 129.965 172.3 128.835 169.32C128.545 168.56 129.155 167.67 129.885 167.47C130.715 167.24 131.445 167.76 131.735 168.52C132.255 169.9 132.895 171.25 133.685 172.53C134.395 173.68 134.975 174.43 135.935 175.41C136.895 176.39 137.675 177 138.725 177.71C139.865 178.48 141.075 179.14 142.305 179.77C143.025 180.13 143.225 181.14 142.835 181.81ZM152.695 176.12C152.305 176.79 151.315 177.11 150.645 176.66C145.295 173.06 140.995 167.99 138.435 162.06C138.115 161.31 138.205 160.46 138.975 160.01C139.615 159.64 140.705 159.8 141.025 160.55C143.385 166.01 147.225 170.75 152.155 174.08C152.825 174.53 153.125 175.39 152.695 176.12ZM170.985 137.13C171.205 134.84 172.345 132.68 174.035 131.12C175.485 129.78 177.175 129 178.955 128.63C184.605 126.95 191.035 129.37 193.015 135.19C194.595 139.81 191.975 144.77 187.685 146.78C182.975 148.99 177.305 147.4 173.715 143.82C171.925 142.06 170.735 139.69 170.985 137.13Z" fill="#9FCEC9"/>
<path d="M139.855 199.06C140.605 198.41 141.375 197.8 142.105 197.13C142.355 196.9 142.605 196.65 142.845 196.4C142.925 196.32 143.015 196.14 143.065 196.1C142.915 195.54 141.495 194.52 140.865 194.23C139.915 193.8 138.875 193.76 137.855 193.79C135.065 194.01 132.865 196.27 131.245 198.36C129.665 200.4 128.395 202.74 127.585 205.19C126.775 207.67 126.365 210.36 126.825 212.95C127.305 215.7 128.765 217.81 130.485 219.95C133.165 223.3 136.215 228.34 132.955 232.4C131.615 234.07 129.425 234.72 127.345 234.34C126.375 234.16 125.435 233.72 124.685 233.07C124.255 232.7 123.975 232.25 123.605 231.83C123.405 231.59 123.295 231.38 123.165 231.42C122.505 231.61 122.305 233.48 122.235 233.99C122.065 235.23 121.855 236.48 121.745 237.73C121.675 238.62 121.705 238.96 122.475 239.42C123.025 239.75 123.595 240.07 124.165 240.37C125.275 240.97 126.405 241.53 127.615 241.9C132.435 243.36 136.275 240.25 138.855 236.44C141.545 232.48 144.285 227.3 142.455 222.48C140.905 218.4 137.545 215.27 136.345 211.02C135.115 206.75 136.505 201.95 139.855 199.06Z" fill="#EFDF9E"/>
<path d="M180.915 138.64C180.905 138.59 180.895 138.53 180.875 138.47C180.845 138.35 180.805 138.23 180.775 138.11C180.785 138.23 180.795 138.35 180.805 138.47C180.845 138.54 180.885 138.59 180.915 138.64Z" fill="#EFDF9E"/>
<path d="M83.5249 201.9C85.5449 201.79 87.5749 201.68 89.5949 201.57C89.8149 201.56 90.0449 201.54 90.2649 201.53C90.8949 200.16 91.5449 198.81 92.2049 197.45C88.7749 194.87 86.0949 191.2 85.4849 186.88C84.9449 183.06 86.1149 179.18 88.7249 176.43C86.4449 176.96 84.3449 178 82.2649 179.41C80.8949 180.33 79.5249 181.28 78.1749 182.28C78.2049 182.49 78.2149 182.7 78.1849 182.92C77.3149 188.97 79.5149 195.3 83.7949 199.62C84.5649 200.4 84.2149 201.41 83.5249 201.9Z" fill="#EFDF9E"/>
<path d="M207.175 181.07C206.845 181.17 206.515 181.28 206.195 181.4C206.005 181.47 205.825 181.54 205.645 181.61C205.615 181.62 205.365 181.72 205.285 181.76C204.365 182.16 203.475 182.65 202.615 183.16C204.405 183.91 206.105 184.85 207.775 185.87C207.805 184.09 208.105 182.35 208.605 180.67C208.135 180.8 207.655 180.93 207.175 181.07Z" fill="#EFDF9E"/>
<path d="M185.075 140.37C185.045 141.7 184.935 143.3 184.285 144.49C184.235 144.58 184.175 144.65 184.125 144.73C185.245 144.58 186.335 144.2 187.335 143.54C190.185 141.67 191.345 138.08 189.675 135.02C189.195 134.13 188.565 133.41 187.845 132.83C187.745 132.8 187.635 132.77 187.535 132.72C185.975 132.01 184.165 131.5 182.365 131.38C183.375 132.85 184.125 134.5 184.575 136.24C184.925 137.58 185.105 138.99 185.075 140.37Z" fill="white"/>
<path d="M279.765 179.92C278.865 180.7 277.955 181.48 277.055 182.25C276.215 182.97 275.375 183.7 274.535 184.42C276.355 183.4 278.185 182.38 280.005 181.36C280.635 181.01 281.265 180.66 281.885 180.31C281.515 180.28 281.135 180.27 280.765 180.3C280.405 180.34 280.045 180.15 279.765 179.92Z" fill="#EFDF9E"/>
<path d="M205.385 166.32C205.005 165.79 204.625 165.26 204.245 164.73C202.035 166.98 199.635 169.03 197.045 170.86C196.495 171.25 195.675 171.05 195.225 170.63C193.525 169.03 192.055 167.2 190.835 165.22C189.465 166.26 188.095 167.31 186.735 168.35C185.475 169.31 183.795 171.21 182.035 170.97C180.315 170.73 178.845 168.53 177.785 167.33C176.915 166.34 176.085 165.31 175.275 164.27C174.225 165.36 173.215 166.5 172.265 167.69C173.915 169 175.625 170.21 177.375 171.32C182.645 174.65 188.655 177.44 194.905 178.25C195.255 178.3 195.535 178.44 195.755 178.63C199.445 174.9 202.975 171.01 206.315 166.96C205.965 166.86 205.635 166.67 205.385 166.32Z" fill="white"/>
<path d="M248.675 192.41C252.965 192.17 257.245 191.92 261.535 191.68C263.075 190.23 264.755 188.9 266.365 187.52C269.775 184.58 273.185 181.65 276.595 178.71C286.935 169.81 297.265 160.91 307.605 152.01C319.565 141.71 331.515 131.42 343.475 121.12C353.365 112.6 363.265 104.08 373.155 95.56C377.155 92.11 381.165 88.67 385.165 85.22C385.165 83.15 385.165 81.07 385.165 79C381.385 79 377.595 79 373.815 79C372.325 80.52 370.605 81.89 369.035 83.31C365.485 86.53 361.925 89.75 358.375 92.97C353.455 97.43 348.545 101.88 343.625 106.34C337.775 111.64 331.935 116.94 326.085 122.24C319.845 127.9 313.605 133.55 307.375 139.21C301.195 144.81 295.015 150.41 288.835 156.02C283.165 161.16 277.495 166.3 271.825 171.44C267.205 175.63 262.575 179.82 257.955 184.01C254.855 186.8 251.765 189.61 248.675 192.41Z" fill="#D85D6F"/>
<path d="M210.815 187.38C210.825 187.53 210.815 187.66 210.785 187.79C210.875 187.85 210.965 187.91 211.055 187.96C213.995 189.87 217.075 191.82 220.515 192.52C219.865 188.68 220.385 184.71 222.085 181.18C225.415 174.25 233.115 169.98 240.745 170.99C247.405 171.87 252.965 176.99 254.005 183.53C256.425 181.33 258.855 179.14 261.275 176.94C263.315 175.09 265.345 173.25 267.385 171.4C267.035 171.17 266.805 170.77 266.835 170.21C267.125 165.01 264.725 160.06 260.755 156.74C251.275 148.8 238.895 155.85 230.425 161.75C225.725 165.02 220.095 168.75 216.065 173.42C215.965 173.6 215.825 173.77 215.665 173.89C212.505 177.69 210.455 182.11 210.815 187.38Z" fill="white"/>
<path d="M246.235 176.23C242.885 173.81 238.445 173.28 234.505 174.36C226.385 176.6 221.795 185.12 223.705 193.13C223.925 193.31 224.075 193.55 224.155 193.81C230.735 193.44 237.315 193.06 243.895 192.69C245.585 191.1 247.345 189.57 249.055 188.02C249.765 187.38 250.475 186.74 251.175 186.1C251.275 182.22 249.375 178.49 246.235 176.23Z" fill="#F48F42"/>
<path d="M174.755 186.26C169.415 183.65 163.435 186.73 159.095 189.99C155.365 192.78 151.915 196.02 147.805 198.16C147.845 198.16 147.875 198.16 147.915 198.15C150.395 198.01 152.865 197.87 155.345 197.73C155.475 197.65 155.615 197.58 155.775 197.53C161.225 196.05 165.515 191.95 170.165 188.95C171.635 188 173.175 187.09 174.755 186.26Z" fill="#EFDF9E"/>
<path d="M191.055 193.33C188.675 193.76 186.495 194.83 184.425 196.07C189.335 195.79 194.235 195.51 199.145 195.23C196.655 193.83 194.025 192.79 191.055 193.33Z" fill="#EFDF9E"/>
<path d="M203.225 195C207.545 194.75 211.855 194.51 216.175 194.26C213.865 193.28 211.675 191.94 209.545 190.56C205.745 188.09 202.015 185.62 197.495 184.71C192.565 183.72 187.415 184.4 182.685 186.01C177.875 187.64 173.455 190.26 169.295 193.14C167.315 194.52 165.365 195.98 163.335 197.27C167.455 197.04 171.575 196.8 175.695 196.57C176.885 196.5 178.075 196.43 179.265 196.37C179.325 196 179.535 195.65 179.925 195.39C183.295 193.16 186.895 190.89 190.985 190.32C195.285 189.72 198.965 191.54 202.525 193.75C203.025 194.07 203.225 194.53 203.225 195Z" fill="#EFDF9E"/>
<path d="M103.705 177.56C101.115 177.25 98.5449 176.7 95.9549 176.35C96.2849 179.32 97.3849 182.19 99.1349 184.71C100.595 182.29 102.125 179.91 103.705 177.56Z" fill="#EFDF9E"/>
<path d="M43.8249 189.49C46.2049 184.52 48.9549 179.72 52.0249 175.15C54.0949 172.07 56.3549 169.04 58.9049 166.3C58.9049 166.27 58.8949 166.24 58.8949 166.2C58.8549 157.61 58.8149 149.02 58.7849 140.43C58.4149 141.03 58.0449 141.63 57.6849 142.23C53.7949 148.71 50.2649 155.46 47.1949 162.36C45.9249 165.21 44.6949 168.13 43.8949 171.16C43.7449 171.73 43.6149 172.31 43.5249 172.89C43.5149 172.97 43.4849 173.22 43.4849 173.29C43.4749 173.5 43.4749 173.7 43.4749 173.91C43.4749 173.98 43.4749 174.02 43.4649 174.05C43.4649 174.06 43.4749 174.06 43.4749 174.08C44.9249 174.63 44.8149 177.09 43.0349 176.97C30.3449 176.13 17.5449 172.35 4.79486 173.89C15.3249 183.41 27.8549 190.61 41.4049 194.9C42.1449 193.05 42.9949 191.24 43.8249 189.49Z" fill="#9FCEC9"/>
<path d="M43.0248 173.97C43.1148 173.98 43.2048 174 43.2848 174.02C43.2148 173.94 43.2648 173.99 43.0248 173.97Z" fill="#EFDF9E"/>
<path d="M49.8748 150.06C51.6548 146.68 53.4948 143.34 55.4848 140.07C56.5348 138.35 57.6348 136.11 59.2048 134.78C60.1648 133.96 61.7548 134.47 61.7648 135.84C61.8048 145.02 61.8448 154.21 61.8848 163.39C62.2248 163.09 62.5548 162.79 62.8948 162.51C67.2248 158.95 72.5148 156.44 78.2348 156.81C80.6248 156.97 83.0048 157.59 85.1048 158.67C84.9548 158.16 85.0948 157.59 85.4648 157.15C89.2648 152.58 94.3248 149.15 99.9248 147.18C98.1748 145.83 96.4048 144.51 94.6048 143.23C93.3148 142.32 93.8848 140.63 95.3648 140.43C107.855 138.75 120.285 139.44 132.625 141.85C135.195 142.35 137.735 142.61 140.215 141.58C140.945 141.28 141.635 140.91 142.315 140.5C142.765 140.17 143.215 139.85 143.665 139.52C143.795 139.43 143.935 139.37 144.085 139.34C144.845 138.81 145.595 138.25 146.335 137.71C150.445 134.76 154.615 131.89 158.855 129.13C167.235 123.68 175.905 118.65 184.915 114.31C189.465 112.12 194.095 110.1 198.815 108.3C198.805 108.16 198.795 108.01 198.825 107.86C199.765 102.84 202.065 98.11 205.385 94.24C203.465 93.3 201.925 91.67 201.385 89.62C200.645 90 200.175 91.03 199.825 91.72C199.065 93.21 198.505 94.81 197.645 96.24C195.735 99.41 192.045 100.74 188.475 100.16C185.635 99.7 183.335 97.93 182.005 95.41C180.965 93.43 180.555 91.26 179.735 89.2C179.695 89.1 179.535 88.79 179.435 88.6C179.325 88.68 179.205 88.75 179.095 88.83C178.615 89.2 178.215 89.68 177.815 90.13C176.785 91.32 175.995 92.66 174.555 93.41C173.375 94.03 172.015 94.31 170.685 94.25C167.995 94.11 165.205 92.76 163.845 90.35C163.035 88.91 162.915 87.31 163.085 85.7C163.255 84.07 163.955 81.93 163.055 80.42C161.365 77.59 158.105 76.16 154.955 75.98C151.825 75.8 148.755 75.95 145.715 75.03C145.035 74.82 144.685 74.27 144.615 73.58C144.515 72.62 144.415 71.65 144.315 70.69C141.835 71.81 138.695 71.36 136.975 68.97C135.485 66.91 135.725 64.26 137.015 62.28C135.215 62.02 133.415 61.75 131.615 61.49C130.265 63.29 129.165 65.31 128.735 67.53C128.405 69.26 128.645 71.12 129.335 72.78C130.735 76.12 133.715 78.82 136.595 81.1C139.775 83.62 143.225 85.77 146.505 88.15C149.025 89.98 151.985 92.06 153.385 94.95C154.645 97.55 153.935 100.06 152.195 102.08C155.435 106.44 158.355 112.24 154.135 116.99C152.385 118.97 149.755 119.5 147.275 118.76C144.885 118.05 142.935 116.45 140.645 115.53C139.875 115.22 138.995 114.96 138.195 115.29C137.095 115.74 136.515 117.08 135.755 117.91C133.975 119.86 131.325 120.19 128.895 119.4C126.225 118.53 124.205 116.74 121.995 115.11C120.355 113.9 117.985 112.58 115.865 112.91C113.465 113.28 113.675 116.26 113.145 118.05C112.455 120.38 110.515 122.05 107.995 121.56C105.395 121.05 103.755 118.83 103.055 116.41C102.265 113.68 102.225 110.97 100.455 108.6C97.2048 104.25 91.4348 102.73 86.2548 103.37C80.1848 104.12 74.5048 107.29 69.5448 110.71C60.2248 117.14 52.8648 126.21 48.3148 136.56C48.1148 137.02 47.7848 137.26 47.4248 137.32C47.0348 139.23 46.6848 141.15 46.3648 143.07C46.3648 143.15 46.3748 143.23 46.3648 143.31C45.6348 148.44 45.3848 153.63 45.5348 158.81C46.8948 155.87 48.3548 152.95 49.8748 150.06Z" fill="#9B8370"/>
<path d="M406.525 114.13C402.415 116.43 398.305 118.72 394.195 121.02C388.515 124.19 382.825 127.37 377.145 130.55C370.385 134.32 363.635 138.1 356.875 141.87C349.625 145.92 342.385 149.97 335.135 154.01C327.995 158 320.855 161.99 313.705 165.98C307.155 169.64 300.595 173.3 294.045 176.96C288.675 179.96 283.305 182.96 277.935 185.96C274.755 187.73 271.585 189.51 268.405 191.28C274.095 190.96 279.785 190.63 285.475 190.31C285.485 190.31 285.485 190.3 285.485 190.3C285.555 190.26 285.635 190.22 285.705 190.18C290.835 187.07 296.255 184.36 301.505 181.46C312.385 175.46 323.255 169.46 334.135 163.46C346.725 156.51 359.315 149.57 371.905 142.62C382.315 136.88 392.725 131.14 403.135 125.39C407.065 123.22 410.985 121.06 414.915 118.89C413.695 116.45 412.475 114 411.245 111.56C409.725 112.49 408.065 113.28 406.525 114.13Z" fill="#D85D6F"/>
<path d="M69.3749 107.23C78.4449 101.32 91.1649 96.56 100.575 104.43C102.445 105.99 103.885 108.03 104.715 110.31C105.575 112.67 105.205 116.32 107.335 118.02C108.105 118.64 109.265 119.05 109.925 118.06C110.465 117.24 110.505 116.07 110.695 115.14C111.155 112.89 112.285 110.86 114.615 110.15C119.565 108.64 123.465 112.96 127.215 115.29C129.205 116.53 131.935 117.79 133.775 115.66C135.315 113.88 136.535 112.06 139.175 112.16C141.265 112.24 143.145 113.4 144.925 114.39C146.575 115.31 148.805 116.72 150.755 115.87C152.675 115.04 153.495 112.47 153.245 110.54C152.885 107.73 150.885 105.17 149.175 103.02C148.695 102.41 148.525 101.48 149.175 100.9C149.965 100.19 150.335 99.79 150.765 98.99C150.965 98.62 150.885 98.78 151.035 98.22C151.055 98.14 151.065 98.1 151.075 98.07C151.075 98.06 151.065 98.04 151.065 97.98C151.065 97.82 151.075 97.66 151.065 97.5C151.065 97.45 151.065 97.41 151.065 97.39C151.055 97.37 151.045 97.33 151.035 97.27C150.995 97.11 150.955 96.96 150.905 96.8C150.885 96.74 150.825 96.58 150.795 96.51C150.725 96.36 150.655 96.21 150.565 96.07C150.095 95.24 149.915 95.05 149.255 94.35C146.595 91.54 143.245 89.53 140.025 87.31C136.385 84.79 132.635 82.18 129.715 78.81C127.045 75.73 125.165 71.94 125.685 67.77C125.975 65.41 126.905 63.18 128.195 61.19C128.625 60.52 129.095 59.89 129.585 59.26C130.385 58.24 131.185 58.43 132.375 58.6C135.205 59.01 138.035 59.43 140.855 59.84C142.465 60.08 142.085 62.29 140.855 62.73C139.205 63.33 138.385 65.75 139.395 67.21C140.465 68.76 143.205 68.62 144.245 67.12C145.125 65.85 146.885 66.39 147.045 67.88C147.195 69.38 147.355 70.88 147.505 72.38C150.585 73.07 153.715 72.71 156.845 73.17C160.375 73.69 164.175 75.98 165.845 79.23C166.725 80.94 166.485 82.86 166.235 84.69C166.035 86.15 165.745 87.76 166.595 89.06C167.835 90.95 170.745 91.8 172.825 90.94C174.225 90.36 174.965 88.84 175.935 87.76C176.685 86.93 177.565 86.03 178.655 85.66C180.675 84.98 181.915 86.54 182.575 88.23C183.335 90.17 183.695 92.26 184.725 94.11C186.075 96.53 188.715 97.75 191.465 97.19C194.805 96.51 195.675 93.49 196.975 90.76C198.175 88.25 199.985 85.9 203.075 86.61C203.715 86.76 204.175 87.42 204.175 88.06C204.165 91.54 209.775 93.7 211.985 90.85C213.745 88.58 212.725 85.13 211.075 83.12C209.115 80.72 206.205 79.32 203.485 77.98C202.205 77.36 202.765 75.66 203.845 75.24C207.755 73.7 211.145 70.99 213.545 67.55C214.245 66.55 215.965 66.57 216.285 67.91C216.805 70.06 219.335 70.65 221.225 71.02C223.445 71.45 225.845 71.83 227.585 73.41C229.825 75.44 230.195 80.03 227.035 81.4C226.115 81.8 225.135 81.76 224.165 81.64C223.455 81.55 222.395 81.15 222.115 82C221.625 83.52 222.875 85.83 223.735 86.99C225.885 89.92 229.705 91.48 233.225 90.34C236.715 89.21 239.325 85.79 239.425 82.13C239.465 80.68 241.485 80.03 242.225 81.37C243.965 84.51 247.675 85.96 251.065 85.04C251.525 83.86 251.995 82.67 252.455 81.49C252.785 80.65 253.425 80.32 254.305 80.44C257.135 80.84 260.295 81.43 262.165 83.81C263.705 85.77 264.185 88.84 262.475 90.85C261.075 92.49 258.905 92.66 256.895 92.77C256.095 92.81 254.915 92.74 254.255 93.3C253.395 94.02 254.045 95.18 254.525 95.91C255.865 97.95 257.885 99.29 258.525 101.78C259.085 103.98 258.205 106.24 255.885 106.89C254.745 107.21 253.435 106.94 252.405 107.58C251.635 108.05 251.155 108.88 250.905 109.73C250.345 111.66 251.205 113.5 252.975 114.41C254.925 115.41 257.325 115.16 259.115 113.96C261.285 112.5 262.455 110.03 262.955 107.54C263.055 107.05 263.525 106.6 264.005 106.49C267.515 105.67 271.105 104.99 274.575 104.01C276.085 103.58 276.885 103.01 276.265 101.37C275.775 100.07 275.185 98.94 275.075 97.53C274.685 92.64 278.865 87.99 283.755 87.92C284.495 87.91 285.345 88.62 285.255 89.42C284.735 93.82 289.285 97.83 293.595 96.5C294.185 96.32 295.015 96.61 295.285 97.19C296.655 100.12 294.375 102.08 292.355 103.87C291.395 104.72 290.075 105.75 290.255 107.18C290.425 108.56 291.655 109.77 292.875 110.29C295.805 111.54 298.865 109.05 300.675 106.99C302.685 104.7 304.145 101.85 304.805 98.87C305.405 96.14 305.215 93.04 303.345 90.82C301.245 88.32 297.785 87.47 295.605 85.02C293.605 82.77 292.515 79.47 294.425 76.82C295.355 75.53 296.795 74.81 297.825 73.62C298.685 72.63 299.135 71.33 299.195 70.03C299.515 63.28 292.165 60.77 286.675 62.51C285.315 62.94 284.485 61.41 284.985 60.31C286.635 56.63 287.425 52.32 286.065 48.42C284.955 45.26 281.975 42.49 278.565 42.17C275.005 41.84 271.885 44.45 268.335 44.42C264.765 44.39 262.505 41.3 263.075 37.89C263.685 34.22 266.565 32.13 269.185 29.86C270.355 28.84 271.565 27.69 272.045 26.16C272.255 25.49 272.315 25.21 272.105 24.68C272.095 24.65 272.055 24.57 271.965 24.46C271.965 24.46 271.995 24.48 271.825 24.3C271.535 24 271.615 24.07 271.285 23.89C270.675 23.54 270.145 23.36 269.355 23.17C265.275 22.19 260.725 22.73 256.615 23.23C253.015 23.66 249.305 24.19 245.825 25.25C241.965 26.43 238.315 28.24 234.405 29.23C231.035 30.09 226.905 30.76 224.465 27.68C220.445 22.62 227.455 17.41 232.025 16.7C234.895 16.25 236.945 13.95 237.595 11.17C238.285 8.2 236.815 5.44 234.195 4.01C231.665 2.63 228.425 2.62 225.985 4.19C224.375 5.23 223.125 6.75 221.675 7.99C220.425 9.05 219.055 9.96 217.565 10.64C211.625 13.33 204.965 12.94 198.625 13.49C195.535 13.76 192.345 14.25 189.525 15.63C188.105 16.32 186.795 17.2 185.655 18.3C184.265 19.64 183.105 21.19 181.635 22.46C179.195 24.57 175.775 25.77 172.725 24.12C171.275 23.33 170.375 21.95 170.165 20.33C169.925 18.48 170.555 16.59 168.985 15.19C165.905 12.42 160.415 14.49 157.055 15.68C153.225 17.04 149.625 18.94 145.985 20.72C138.425 24.41 130.165 26.36 122.675 30.16C115.185 33.95 108.215 39.18 101.765 44.51C95.3149 49.84 89.2949 55.69 83.7649 61.96C73.2649 73.88 64.9649 87.7 58.5949 102.23C55.0249 110.37 52.0949 118.8 49.8149 127.41C54.7049 119.35 61.4349 112.4 69.3749 107.23Z" fill="#D8B99E"/>
<path d="M301.755 187.66C301.615 187.56 301.485 187.46 301.345 187.37C301.085 187.19 300.815 187.02 300.535 186.86C300.105 186.6 299.645 186.38 299.195 186.17C296.935 187.42 294.665 188.67 292.405 189.92C295.475 189.75 298.545 189.57 301.625 189.39C302.265 189.35 302.915 189.32 303.555 189.28C303.485 189.21 303.425 189.14 303.365 189.07C302.925 188.62 302.445 188.2 301.955 187.8C301.875 187.75 301.815 187.71 301.755 187.66Z" fill="#EFDF9E"/>
<path d="M256.395 194.97C252.645 195.18 248.895 195.4 245.145 195.61C245.125 195.63 245.105 195.64 245.095 195.66C244.455 196.24 243.675 196.13 243.145 195.73C232.545 196.33 221.935 196.94 211.335 197.54C198.065 198.3 184.795 199.05 171.525 199.81C162.955 200.3 154.385 200.79 145.815 201.28C145.425 201.3 145.115 201.19 144.885 201.01C144.815 201.05 144.735 201.09 144.655 201.12C144.475 201.21 144.285 201.26 144.075 201.25C143.545 201.25 143.015 201.25 142.485 201.25C142.325 201.25 142.175 201.22 142.025 201.17C141.805 201.36 141.575 201.55 141.355 201.75C140.405 202.63 139.845 203.65 139.415 204.92C138.395 207.94 139.115 210.75 140.635 213.43C143.165 217.87 146.655 221.82 145.975 227.29C145.615 230.17 144.365 232.89 142.985 235.41C141.745 237.68 140.235 239.9 138.355 241.7C136.605 243.36 134.455 244.73 132.045 245.15C129.155 245.65 126.405 244.85 123.825 243.58C122.535 242.95 120.995 242.28 119.925 241.29C118.895 240.34 118.625 239.09 118.735 237.73C118.855 236.26 119.105 234.78 119.315 233.32C119.465 232.22 119.745 231.13 120.335 230.18C121.765 227.92 124.305 227.95 125.925 229.97C126.635 230.86 127.325 231.46 128.525 231.45C129.495 231.44 130.365 231.01 130.865 230.16C132.215 227.85 130.565 224.96 129.185 223.11C127.465 220.82 125.595 218.78 124.565 216.05C122.925 211.68 123.615 206.8 125.375 202.55C119.365 202.89 113.365 203.23 107.355 203.56C93.5149 204.33 79.6749 205.09 65.8349 205.85C53.8949 206.51 41.9449 207.17 30.0049 207.85C30.3849 211.11 30.8549 214.36 31.4549 217.6C34.1949 232.34 39.1449 246.64 46.1449 259.9C52.9749 272.82 61.6749 284.71 71.9149 295.14C82.0749 305.49 93.6949 314.35 106.365 321.4C119.105 328.49 132.865 333.7 147.125 336.78C161.765 339.94 176.865 340.8 191.775 339.36C206.485 337.95 221.015 334.24 234.605 328.45C247.965 322.76 260.495 315.09 271.635 305.78C282.755 296.5 292.545 285.63 300.585 273.59C308.715 261.41 315.075 248.08 319.345 234.07C323.605 220.11 325.745 205.59 325.805 191C325.605 191.01 325.415 191.02 325.215 191.03C315.955 191.56 306.695 192.09 297.435 192.61C283.755 193.41 270.075 194.19 256.395 194.97Z" fill="white"/>
<path d="M55.4649 190.78C61.5249 178.3 73.2049 167.1 87.0249 163.92C84.1849 160.56 79.3849 159.33 75.0449 159.89C69.8349 160.56 65.3649 163.93 61.8149 167.6C58.3949 171.14 55.5149 175.16 52.8949 179.32C50.1649 183.64 47.6949 188.14 45.5849 192.8C43.9849 196.35 42.2849 200.27 41.9849 204.2C44.0149 204.09 46.0449 203.97 48.0749 203.86C49.2349 203.8 50.3949 203.73 51.5449 203.67C51.4649 203.44 51.4349 203.18 51.4849 202.89C52.2049 198.67 53.5949 194.62 55.4649 190.78Z" fill="#EFDF9E"/>
<path d="M97.6048 187.32C97.3248 187.19 97.0748 186.99 96.8848 186.72C94.5848 183.62 93.2549 179.89 92.9249 176.05C92.8849 176.05 92.8549 176.04 92.8149 176.04C92.7049 176.04 92.6049 176.04 92.4949 176.04C92.5749 176.58 92.4148 177.15 91.8648 177.55C89.0948 179.55 87.8748 183.36 88.4648 186.66C89.0348 189.9 91.0149 192.7 93.5649 194.72C94.8549 192.23 96.2048 189.76 97.6048 187.32Z" fill="#EFDF9E"/>
<path d="M101.955 149.66C96.3249 151.39 91.3449 154.76 87.5849 159.28C87.3849 159.52 87.0949 159.65 86.7949 159.7C88.1349 160.64 89.3149 161.81 90.2349 163.22C91.8649 162.96 93.5049 162.86 95.1349 162.92C95.0349 162.55 95.0649 162.15 95.2949 161.84C98.6649 157.48 104.135 155 109.565 155.25C107.285 153.2 104.955 151.22 102.575 149.3C102.415 149.45 102.215 149.58 101.955 149.66Z" fill="#EFDF9E"/>
<path d="M71.8049 183.65C74.7249 180.9 78.1149 178.5 81.4849 176.33C85.0949 174 88.9449 172.81 93.2649 173.07C97.4249 173.32 101.455 174.48 105.615 174.73C106.535 173.42 107.485 172.12 108.445 170.84C103.625 166.92 97.1949 165.21 91.0749 166.11C90.9249 166.2 90.7549 166.26 90.5449 166.3C86.6249 166.88 82.8449 168.14 79.3349 169.98C66.7549 176.54 56.8749 189.47 54.4149 203.51C58.1549 203.3 61.8949 203.1 65.6349 202.89C64.8149 199.41 65.3549 195.57 66.3749 192.19C67.4049 188.78 69.2149 186.09 71.8049 183.65Z" fill="#EFDF9E"/>
<path d="M98.0349 163.18C102.455 163.84 106.685 165.65 110.245 168.47C112.105 166.05 114.035 163.69 116.035 161.37C115.305 160.64 114.575 159.92 113.835 159.21C108.435 157.07 101.725 158.58 98.0349 163.18Z" fill="#EFDF9E"/>
<path d="M187.675 146.79C191.975 144.78 194.585 139.82 193.005 135.2C191.025 129.38 184.595 126.96 178.945 128.64C177.165 129.01 175.475 129.79 174.025 131.13C172.335 132.69 171.195 134.84 170.975 137.14C170.725 139.7 171.915 142.06 173.695 143.84C177.285 147.41 182.955 149 187.675 146.79ZM187.545 132.73C187.645 132.78 187.745 132.81 187.855 132.84C188.575 133.42 189.205 134.15 189.685 135.03C191.355 138.09 190.195 141.68 187.345 143.55C186.345 144.21 185.255 144.59 184.135 144.74C184.185 144.66 184.245 144.59 184.295 144.5C184.945 143.31 185.055 141.71 185.085 140.38C185.115 139 184.935 137.59 184.595 136.25C184.145 134.51 183.395 132.87 182.385 131.39C184.165 131.51 185.975 132.02 187.545 132.73ZM180.875 138.48C180.895 138.53 180.895 138.59 180.915 138.65C180.875 138.6 180.845 138.54 180.805 138.49C180.795 138.37 180.785 138.25 180.775 138.13C180.805 138.24 180.845 138.36 180.875 138.48Z" fill="#293534"/>
<path d="M152.155 174.07C147.215 170.74 143.375 166 141.025 160.54C140.705 159.8 139.615 159.63 138.975 160C138.205 160.45 138.115 161.31 138.435 162.05C140.995 167.98 145.295 173.05 150.645 176.65C151.315 177.1 152.305 176.78 152.695 176.11C153.125 175.39 152.825 174.53 152.155 174.07Z" fill="#293534"/>
<path d="M142.295 179.76C141.065 179.14 139.855 178.47 138.715 177.7C137.665 177 136.885 176.38 135.925 175.4C134.955 174.42 134.385 173.67 133.675 172.52C132.885 171.24 132.245 169.89 131.725 168.51C131.435 167.75 130.715 167.23 129.875 167.46C129.145 167.66 128.535 168.54 128.825 169.31C129.955 172.29 131.455 175.11 133.695 177.41C135.715 179.49 138.205 181.04 140.775 182.34C141.495 182.71 142.405 182.53 142.825 181.8C143.225 181.14 143.025 180.13 142.295 179.76Z" fill="#293534"/>
<path d="M132.155 184.61C131.305 184.18 130.465 183.72 129.675 183.19C129.485 183.06 129.295 182.93 129.115 182.79C129.105 182.78 129.085 182.77 129.065 182.76C128.985 182.71 128.915 182.64 128.845 182.58C128.495 182.3 128.165 181.99 127.845 181.67C127.545 181.36 127.275 181.03 126.985 180.7C126.965 180.67 126.935 180.63 126.915 180.6C126.855 180.51 126.785 180.42 126.725 180.33C126.595 180.15 126.475 179.96 126.355 179.77C126.085 179.33 125.845 178.88 125.615 178.42C125.505 178.19 125.405 177.96 125.295 177.73C125.285 177.7 125.275 177.69 125.275 177.67C125.265 177.65 125.265 177.63 125.245 177.6C125.185 177.43 125.115 177.27 125.045 177.1C124.765 176.37 124.025 175.79 123.195 176.05C122.485 176.28 121.855 177.11 122.145 177.9C122.955 180.04 124.025 182.05 125.625 183.71C127.045 185.18 128.805 186.27 130.615 187.19C131.315 187.54 132.275 187.4 132.665 186.65C133.055 185.98 132.905 184.99 132.155 184.61Z" fill="#293534"/>
<path d="M418.205 118.76C416.525 115.4 414.845 112.04 413.165 108.67C412.795 107.94 411.785 107.76 411.115 108.13C409.775 108.88 408.445 109.62 407.105 110.37C403.495 112.39 399.875 114.41 396.265 116.42C390.895 119.42 385.525 122.42 380.155 125.42C373.605 129.08 367.045 132.74 360.495 136.4C353.355 140.39 346.215 144.38 339.065 148.37C331.815 152.42 324.575 156.47 317.325 160.51C310.565 164.28 303.815 168.06 297.055 171.83C292.955 174.12 288.845 176.41 284.745 178.71C284.715 178.58 284.665 178.46 284.595 178.35C284.375 178.01 284.085 177.79 283.695 177.66C283.355 177.54 283.015 177.47 282.665 177.41C285.645 174.84 288.625 172.28 291.605 169.71C297.485 164.65 303.365 159.58 309.245 154.52C315.595 149.05 321.945 143.59 328.285 138.12C334.555 132.72 340.825 127.32 347.095 121.92C352.745 117.06 358.395 112.19 364.035 107.33C368.515 103.47 372.995 99.61 377.485 95.75C380.245 93.37 383.015 90.99 385.775 88.61C386.355 88.11 386.965 87.64 387.525 87.11C387.875 86.77 388.085 86.43 388.135 85.89C388.285 84.48 388.135 82.99 388.135 81.57C388.135 80.21 388.135 78.85 388.135 77.49C388.135 76.68 387.445 75.99 386.635 75.99C383.245 75.99 379.845 75.99 376.455 75.99C374.965 75.99 373.065 75.61 371.885 76.65C369.925 78.38 368.005 80.16 366.075 81.92C362.035 85.58 357.995 89.24 353.955 92.91C348.385 97.96 342.805 103.02 337.235 108.07C330.745 113.95 324.265 119.83 317.775 125.71C310.985 131.87 304.195 138.02 297.405 144.18C290.915 150.06 284.425 155.94 277.935 161.83C275.235 164.27 272.545 166.72 269.845 169.16C269.815 158.6 260.365 149.64 249.785 150.22C243.135 150.59 237.025 153.76 231.565 157.35C226.165 160.9 220.555 164.65 215.925 169.19C215.355 169.75 214.795 170.34 214.265 170.94C211.945 170.38 209.535 170.24 207.165 170.52C219.545 155.82 229.455 139.13 236.485 121.17C239.075 114.56 241.265 107.8 243.085 100.95C243.325 100.04 242.625 99.01 241.635 99.05C228.405 99.59 215.475 102.4 203.045 106.76L198.795 108.3C194.075 110.1 189.445 112.12 184.895 114.31C175.885 118.66 167.225 123.68 158.835 129.13C154.595 131.89 150.425 134.76 146.315 137.71C145.575 138.25 144.825 138.8 144.065 139.34C143.915 139.37 143.775 139.43 143.645 139.52C143.195 139.85 142.745 140.17 142.295 140.5C141.615 140.91 140.925 141.28 140.195 141.58C137.715 142.61 135.175 142.36 132.605 141.85C120.265 139.44 107.835 138.76 95.3449 140.43C93.8749 140.63 93.3049 142.31 94.5849 143.23C96.3849 144.51 98.1549 145.83 99.9049 147.18C94.3049 149.14 89.2449 152.57 85.4449 157.15C85.0849 157.59 84.9349 158.16 85.0849 158.67C82.9849 157.58 80.6149 156.96 78.2149 156.81C72.4949 156.43 67.2049 158.95 62.8749 162.51C62.5249 162.79 62.1949 163.1 61.8649 163.39C61.8249 154.21 61.7849 145.02 61.7449 135.84C61.7349 134.46 60.1449 133.96 59.1849 134.78C57.6249 136.11 56.5149 138.35 55.4649 140.07C53.4849 143.33 51.6349 146.68 49.8549 150.06C48.6249 152.4 47.4449 154.77 46.3049 157.16L42.7449 165.16C41.9749 167.08 41.2749 169.03 40.8149 171.03C40.6249 171.84 40.4649 172.83 40.4849 173.76C27.3549 172.54 14.2849 168.95 1.08487 171.43C-0.0351335 171.64 -0.345134 173.2 0.424866 173.94C11.7149 184.8 25.4349 192.95 40.3549 197.72C39.6549 199.85 39.1249 202.03 38.9649 204.23C38.9649 204.28 38.9649 204.32 38.9649 204.36C35.4149 204.56 31.8649 204.76 28.3049 204.96C28.1449 204.97 28.0049 205 27.8749 205.05C27.2449 205.15 26.7149 205.62 26.8049 206.46C28.4749 221.88 32.4249 236.94 38.6049 251.17C44.5549 264.86 52.5749 277.62 62.2249 289.01C71.8149 300.32 83.0549 310.22 95.4549 318.34C107.825 326.44 121.385 332.74 135.565 336.94C150.105 341.25 165.325 343.32 180.485 343.03C195.735 342.74 210.955 340.09 225.385 335.18C239.495 330.38 252.865 323.47 264.955 314.75C276.905 306.13 287.605 295.82 296.635 284.17C305.775 272.38 313.175 259.33 318.575 245.43C324.105 231.18 327.435 216.1 328.465 200.86C328.725 197.06 328.835 193.25 328.805 189.44C328.805 189.15 328.725 188.91 328.615 188.71C328.415 188.25 327.985 187.9 327.305 187.94C320.595 188.32 313.875 188.71 307.165 189.09C307.135 189.02 307.095 188.95 307.045 188.88C305.745 187.12 304.145 185.6 302.295 184.46C311.935 179.14 321.575 173.82 331.215 168.51C343.805 161.56 356.395 154.62 368.985 147.67C379.865 141.67 390.735 135.67 401.615 129.67C406.865 126.77 412.285 124.06 417.415 120.95C417.485 120.91 417.565 120.87 417.635 120.83C418.405 120.41 418.555 119.47 418.205 118.76ZM271.815 171.43C277.485 166.29 283.155 161.15 288.825 156.01C295.005 150.41 301.185 144.81 307.365 139.2C313.605 133.54 319.845 127.89 326.075 122.23C331.925 116.93 337.765 111.63 343.615 106.33C348.535 101.87 353.445 97.42 358.365 92.96C361.915 89.74 365.475 86.52 369.025 83.3C370.595 81.88 372.315 80.51 373.805 78.99C377.585 78.99 381.375 78.99 385.155 78.99C385.155 81.06 385.155 83.14 385.155 85.21C381.155 88.66 377.145 92.1 373.145 95.55C363.255 104.07 353.355 112.59 343.465 121.11C331.505 131.41 319.555 141.7 307.595 152C297.255 160.9 286.925 169.8 276.585 178.7C273.175 181.64 269.765 184.57 266.355 187.51C264.755 188.89 263.065 190.22 261.525 191.67C257.235 191.91 252.955 192.16 248.665 192.4C251.755 189.6 254.845 186.8 257.935 183.99C262.565 179.81 267.195 175.62 271.815 171.43ZM281.885 180.32C281.255 180.67 280.625 181.02 280.005 181.37C278.185 182.39 276.355 183.41 274.535 184.43C275.375 183.71 276.215 182.98 277.055 182.26C277.955 181.48 278.865 180.7 279.765 179.93C280.035 180.16 280.395 180.35 280.765 180.32C281.145 180.28 281.515 180.28 281.885 180.32ZM243.895 192.68C237.315 193.05 230.735 193.43 224.155 193.8C224.065 193.54 223.915 193.3 223.705 193.12C221.795 185.11 226.385 176.59 234.505 174.35C238.445 173.27 242.885 173.8 246.235 176.22C249.365 178.48 251.275 182.21 251.185 186.08C250.475 186.72 249.765 187.36 249.065 188C247.345 189.57 245.585 191.09 243.895 192.68ZM215.665 173.89C215.835 173.77 215.965 173.6 216.065 173.42C220.095 168.76 225.725 165.02 230.425 161.75C238.895 155.86 251.275 148.8 260.755 156.74C264.715 160.06 267.125 165.01 266.835 170.21C266.805 170.77 267.035 171.16 267.385 171.4C265.345 173.25 263.315 175.09 261.275 176.94C258.855 179.14 256.425 181.33 254.005 183.53C252.965 176.99 247.405 171.87 240.745 170.99C233.105 169.98 225.415 174.25 222.085 181.18C220.385 184.72 219.875 188.69 220.515 192.52C217.065 191.82 213.985 189.88 211.055 187.96C210.965 187.9 210.875 187.84 210.785 187.79C210.805 187.66 210.825 187.53 210.815 187.38C210.455 182.11 212.505 177.69 215.665 173.89ZM190.975 190.32C186.895 190.89 183.285 193.15 179.915 195.39C179.525 195.65 179.325 196 179.255 196.37C178.065 196.44 176.875 196.51 175.685 196.57C171.565 196.8 167.445 197.04 163.325 197.27C165.355 195.98 167.305 194.51 169.285 193.14C173.445 190.26 177.865 187.64 182.675 186.01C187.395 184.41 192.555 183.72 197.485 184.71C202.005 185.62 205.735 188.09 209.535 190.56C211.665 191.95 213.855 193.28 216.165 194.26C211.845 194.51 207.535 194.75 203.215 195C203.225 194.54 203.015 194.07 202.505 193.75C198.965 191.54 195.285 189.72 190.975 190.32ZM199.145 195.23C194.235 195.51 189.335 195.79 184.425 196.07C186.495 194.83 188.675 193.76 191.055 193.33C194.025 192.79 196.655 193.83 199.145 195.23ZM155.775 197.53C155.605 197.58 155.465 197.65 155.345 197.73C152.865 197.87 150.395 198.01 147.915 198.15C147.875 198.15 147.845 198.15 147.805 198.16C151.915 196.02 155.365 192.78 159.095 189.99C163.445 186.73 169.415 183.65 174.755 186.26C173.175 187.09 171.645 188 170.165 188.95C165.515 191.95 161.215 196.05 155.775 197.53ZM194.895 178.23C188.655 177.42 182.645 174.63 177.365 171.3C175.615 170.19 173.905 168.98 172.255 167.67C173.205 166.49 174.215 165.35 175.265 164.25C176.075 165.29 176.905 166.32 177.775 167.31C178.845 168.52 180.305 170.72 182.025 170.95C183.785 171.19 185.465 169.3 186.725 168.33C188.095 167.29 189.465 166.24 190.825 165.2C192.045 167.19 193.515 169.01 195.215 170.61C195.665 171.03 196.485 171.23 197.035 170.84C199.625 169.01 202.025 166.97 204.235 164.71C204.615 165.24 204.995 165.77 205.375 166.3C205.625 166.65 205.955 166.84 206.295 166.92C202.955 170.97 199.425 174.86 195.735 178.59C195.525 178.41 195.245 178.27 194.895 178.23ZM202.625 183.17C203.485 182.65 204.365 182.17 205.295 181.77C205.375 181.74 205.615 181.64 205.655 181.62C205.835 181.55 206.025 181.48 206.205 181.41C206.525 181.29 206.855 181.18 207.185 181.08C207.655 180.93 208.135 180.8 208.625 180.69C208.115 182.37 207.825 184.11 207.795 185.89C206.115 184.86 204.415 183.92 202.625 183.17ZM212.175 173.59C211.245 174.9 210.425 176.28 209.745 177.73C209.425 177.57 209.055 177.51 208.665 177.59C205.505 178.24 202.465 179.54 199.815 181.39C199.575 181.56 199.375 181.78 199.245 182.04C199.135 182.01 199.035 181.98 198.935 181.95C198.295 181.8 197.655 181.68 197.025 181.58C199.365 179.24 201.645 176.84 203.845 174.37C206.535 173.42 209.385 173.16 212.175 173.59ZM208.005 164.85C207.995 164.83 207.985 164.82 207.975 164.8C207.225 163.74 206.465 162.69 205.715 161.63C205.185 160.89 204.065 160.56 203.355 161.33C201.255 163.63 198.945 165.72 196.445 167.58C194.915 165.98 193.615 164.21 192.575 162.24C192.225 161.59 191.155 161.22 190.525 161.7C189.215 162.7 187.905 163.7 186.595 164.7C185.945 165.2 185.285 165.7 184.635 166.2C184.245 166.5 183.845 166.8 183.455 167.1C183.215 167.28 182.805 167.76 182.535 167.8C181.945 167.88 180.255 165.59 179.755 165.02C178.685 163.8 177.665 162.53 176.705 161.23C176.135 160.46 175.095 160.19 174.345 160.93C172.785 162.45 171.345 164.07 169.975 165.76C167.235 163.31 164.755 160.56 162.785 157.49C161.715 155.82 160.775 154.03 160.115 152.14C166.485 156.49 174.135 158.13 181.925 158.28C186.685 158.37 191.475 158.05 196.165 157.18C200.515 156.37 204.805 154.98 209.035 153.7C212.205 152.74 215.405 151.67 218.415 150.25C215.215 155.29 211.745 160.17 208.005 164.85ZM99.3349 142.99C109.075 142.04 118.935 142.38 128.565 144.12C130.935 144.55 133.315 145.19 135.735 145.31C131.855 148.19 128.055 151.17 124.575 154.47C123.175 155.8 125.295 157.92 126.695 156.59C132.035 151.54 138.115 147.25 144.055 142.93C145.975 141.75 147.775 140.36 149.605 139.05C151.605 137.63 153.625 136.23 155.655 134.85C172.125 123.7 189.795 113.93 208.835 107.94C218.835 104.8 229.165 102.77 239.635 102.16C235.455 117.18 229.415 131.66 221.545 145.09C221.425 145.13 221.305 145.18 221.185 145.26C217.695 147.57 213.755 149.04 209.785 150.3C205.885 151.54 201.925 152.73 197.945 153.71C193.605 154.77 189.125 155.18 184.665 155.26C180.295 155.33 175.875 155.14 171.615 154.06C166.835 152.85 162.375 150.61 158.745 147.24C158.185 146.72 157.515 146.74 157.005 147.03C156.535 147.18 156.185 147.56 156.185 148.16C156.145 148.39 156.165 148.62 156.265 148.85C157.245 155.41 161.085 161.11 165.675 165.77C170.865 171.03 177.205 175.27 183.995 178.15C187.015 179.43 190.135 180.39 193.355 180.95C193.255 181.05 193.165 181.15 193.065 181.24C187.705 181.18 182.445 182.62 177.525 184.87C177.455 184.51 177.235 184.17 176.825 183.93C171.125 180.67 164.405 182.7 159.305 186.13C154.795 189.16 150.895 193.35 145.975 195.71C145.905 195.19 145.685 194.64 145.255 194.06C143.505 191.66 140.725 190.69 137.835 190.78C137.715 190.78 137.605 190.8 137.495 190.82C132.745 191.36 129.175 195.4 126.875 199.47C115.805 200.1 104.735 200.71 93.6649 201.32C100.295 187.21 108.845 174.05 119.125 162.32C119.665 161.71 119.725 160.81 119.125 160.2C112.985 153.97 106.355 148.22 99.3349 142.99ZM136.325 211.02C137.535 215.28 140.895 218.4 142.435 222.48C144.265 227.3 141.525 232.48 138.835 236.44C136.255 240.24 132.415 243.36 127.595 241.9C126.385 241.53 125.255 240.97 124.145 240.37C123.575 240.06 123.015 239.75 122.455 239.42C121.685 238.96 121.645 238.61 121.725 237.73C121.825 236.48 122.045 235.23 122.215 233.99C122.285 233.49 122.485 231.61 123.145 231.42C123.275 231.38 123.385 231.59 123.585 231.83C123.955 232.25 124.235 232.7 124.665 233.07C125.415 233.72 126.355 234.16 127.325 234.34C129.405 234.72 131.595 234.07 132.935 232.4C136.195 228.34 133.155 223.3 130.465 219.95C128.755 217.82 127.295 215.7 126.805 212.95C126.345 210.36 126.755 207.67 127.565 205.19C128.375 202.74 129.645 200.41 131.225 198.36C132.845 196.26 135.035 194 137.835 193.79C138.865 193.76 139.895 193.8 140.845 194.23C141.485 194.52 142.895 195.54 143.045 196.1C142.995 196.13 142.905 196.31 142.825 196.4C142.585 196.65 142.345 196.89 142.085 197.13C141.355 197.8 140.585 198.42 139.835 199.06C136.505 201.95 135.115 206.75 136.325 211.02ZM83.7949 199.62C79.5149 195.3 77.3149 188.97 78.1849 182.92C78.2149 182.7 78.2049 182.49 78.1749 182.28C79.5149 181.29 80.8949 180.34 82.2649 179.41C84.3549 178 86.4449 176.96 88.7249 176.43C86.1149 179.18 84.9449 183.06 85.4849 186.88C86.0949 191.2 88.7849 194.87 92.2049 197.45C91.5449 198.8 90.8949 200.16 90.2649 201.53C90.0449 201.54 89.8149 201.56 89.5949 201.57C87.5749 201.68 85.5449 201.79 83.5249 201.9C84.2149 201.41 84.5649 200.4 83.7949 199.62ZM68.5249 202.09C67.8849 199.41 68.3349 196.46 69.0249 193.84C69.8249 190.8 71.2149 188.42 73.4549 186.22C73.9649 185.71 74.5149 185.24 75.0649 184.76C74.8749 191.03 77.2049 197.22 81.6749 201.73C81.7749 201.83 81.8849 201.91 81.9949 201.98C77.5149 202.23 73.0349 202.47 68.5549 202.72C68.5849 202.53 68.5749 202.32 68.5249 202.09ZM65.6349 202.89C61.8949 203.1 58.1549 203.3 54.4149 203.51C56.8749 189.47 66.7549 176.54 79.3349 169.98C82.8449 168.15 86.6249 166.89 90.5449 166.3C90.7549 166.27 90.9249 166.2 91.0749 166.11C97.1949 165.21 103.625 166.92 108.445 170.84C107.485 172.13 106.535 173.42 105.615 174.73C101.465 174.49 97.4249 173.32 93.2649 173.07C88.9449 172.81 85.0949 174 81.4849 176.33C78.1249 178.5 74.7249 180.9 71.8049 183.65C69.2149 186.09 67.4049 188.78 66.3749 192.19C65.3549 195.57 64.8049 199.41 65.6349 202.89ZM98.0349 163.18C101.725 158.59 108.435 157.07 113.835 159.21C114.575 159.92 115.305 160.64 116.035 161.37C114.045 163.68 112.115 166.05 110.245 168.47C106.685 165.64 102.465 163.84 98.0349 163.18ZM103.705 177.56C102.125 179.91 100.595 182.29 99.1349 184.71C97.3949 182.19 96.2849 179.32 95.9549 176.35C98.5449 176.7 101.105 177.25 103.705 177.56ZM88.4649 186.67C87.8749 183.37 89.0949 179.56 91.8649 177.56C92.4149 177.17 92.5749 176.59 92.4949 176.05C92.6049 176.05 92.7049 176.04 92.8149 176.05C92.8549 176.05 92.8849 176.06 92.9249 176.06C93.2549 179.9 94.5949 183.63 96.8849 186.73C97.0749 186.99 97.3249 187.2 97.6049 187.33C96.1949 189.77 94.8549 192.24 93.5649 194.74C91.0249 192.71 89.0449 189.92 88.4649 186.67ZM87.5849 159.28C91.3449 154.76 96.3249 151.39 101.955 149.66C102.215 149.58 102.425 149.45 102.585 149.29C104.975 151.21 107.305 153.19 109.575 155.24C104.145 155 98.6749 157.48 95.3049 161.83C95.0649 162.14 95.0349 162.54 95.1449 162.91C93.5149 162.85 91.8749 162.95 90.2449 163.21C89.3149 161.8 88.1449 160.63 86.8049 159.69C87.0949 159.65 87.3849 159.52 87.5849 159.28ZM61.8149 167.61C65.3649 163.94 69.8349 160.57 75.0449 159.9C79.3849 159.34 84.1849 160.57 87.0249 163.93C73.2149 167.1 61.5249 178.31 55.4649 190.79C53.6049 194.63 52.2049 198.68 51.4849 202.89C51.4349 203.18 51.4649 203.44 51.5449 203.67C50.3849 203.73 49.2249 203.8 48.0749 203.86C46.0449 203.97 44.0149 204.09 41.9849 204.2C42.2849 200.27 43.9849 196.35 45.5849 192.8C47.6949 188.14 50.1649 183.65 52.8949 179.32C55.5049 175.17 58.3949 171.15 61.8149 167.61ZM43.2949 174.02C43.2149 174 43.1249 173.98 43.0349 173.97C43.2649 173.99 43.2149 173.94 43.2949 174.02ZM4.78487 173.89C17.5349 172.35 30.3349 176.13 43.0249 176.97C44.7949 177.09 44.9149 174.63 43.4649 174.08C43.4549 174.07 43.4549 174.06 43.4549 174.05C43.4549 174.02 43.4649 173.97 43.4649 173.91C43.4749 173.7 43.4649 173.5 43.4749 173.29C43.4749 173.22 43.5049 172.97 43.5149 172.89C43.6049 172.31 43.7349 171.73 43.8849 171.16C44.6849 168.13 45.9149 165.21 47.1849 162.36C50.2549 155.46 53.7849 148.71 57.6749 142.23C58.0349 141.63 58.4049 141.03 58.7749 140.43C58.8149 149.02 58.8549 157.61 58.8849 166.2C58.8849 166.23 58.8949 166.26 58.8949 166.3C56.3449 169.04 54.0849 172.08 52.0149 175.15C48.9349 179.72 46.1849 184.52 43.8149 189.49C42.9749 191.24 42.1349 193.05 41.3849 194.9C27.8449 190.61 15.3249 183.41 4.78487 173.89ZM325.215 191.05C325.415 191.04 325.605 191.03 325.805 191.02C325.745 205.61 323.605 220.13 319.345 234.09C315.065 248.1 308.715 261.43 300.585 273.61C292.545 285.66 282.755 296.52 271.635 305.8C260.495 315.11 247.955 322.78 234.605 328.47C221.015 334.26 206.485 337.97 191.775 339.38C176.865 340.81 161.765 339.96 147.125 336.8C132.865 333.72 119.115 328.51 106.365 321.42C93.6949 314.37 82.0749 305.5 71.9149 295.16C61.6749 284.73 52.9749 272.84 46.1449 259.92C39.1449 246.66 34.1949 232.36 31.4549 217.62C30.8549 214.39 30.3849 211.14 30.0049 207.87C41.9449 207.19 53.8949 206.53 65.8349 205.87C79.6749 205.11 93.5149 204.35 107.355 203.58C113.365 203.25 119.365 202.91 125.375 202.57C123.615 206.82 122.925 211.69 124.565 216.07C125.585 218.8 127.465 220.83 129.185 223.13C130.575 224.98 132.215 227.87 130.865 230.18C130.365 231.03 129.505 231.46 128.525 231.47C127.325 231.48 126.635 230.88 125.925 229.99C124.305 227.97 121.765 227.94 120.335 230.2C119.735 231.15 119.465 232.24 119.315 233.34C119.115 234.8 118.865 236.28 118.735 237.75C118.625 239.11 118.895 240.36 119.925 241.31C120.995 242.3 122.525 242.96 123.825 243.6C126.415 244.87 129.155 245.67 132.045 245.17C134.455 244.75 136.605 243.39 138.355 241.72C140.245 239.93 141.745 237.71 142.985 235.43C144.365 232.9 145.615 230.19 145.975 227.31C146.655 221.84 143.155 217.89 140.635 213.45C139.105 210.77 138.385 207.95 139.415 204.94C139.845 203.67 140.405 202.64 141.355 201.77C141.575 201.57 141.805 201.38 142.025 201.19C142.165 201.24 142.325 201.27 142.485 201.27C143.015 201.27 143.545 201.27 144.075 201.27C144.285 201.28 144.475 201.23 144.655 201.14C144.735 201.11 144.815 201.07 144.885 201.03C145.115 201.21 145.425 201.32 145.815 201.3C154.385 200.81 162.955 200.32 171.525 199.83C184.795 199.07 198.065 198.32 211.335 197.56C221.935 196.96 232.545 196.35 243.145 195.75C243.685 196.16 244.455 196.26 245.095 195.68C245.115 195.66 245.135 195.65 245.145 195.63C248.895 195.42 252.645 195.2 256.395 194.99C270.075 194.21 283.755 193.43 297.435 192.65C306.695 192.1 315.955 191.58 325.215 191.05ZM303.355 189.07C303.425 189.14 303.485 189.21 303.545 189.28C302.905 189.32 302.255 189.35 301.615 189.39C298.545 189.56 295.475 189.74 292.395 189.92C294.655 188.67 296.925 187.42 299.185 186.17C299.645 186.38 300.095 186.61 300.525 186.86C300.795 187.02 301.065 187.19 301.335 187.37C301.475 187.46 301.615 187.56 301.745 187.66C301.805 187.7 301.865 187.75 301.925 187.8C302.435 188.2 302.905 188.62 303.355 189.07ZM403.145 125.4C392.735 131.14 382.325 136.88 371.915 142.63C359.325 149.58 346.735 156.52 334.145 163.47C323.265 169.47 312.395 175.47 301.515 181.47C296.265 184.37 290.845 187.08 285.715 190.19C285.645 190.23 285.565 190.27 285.495 190.31C285.485 190.31 285.485 190.32 285.485 190.32C279.795 190.64 274.105 190.97 268.415 191.29C271.595 189.52 274.765 187.74 277.945 185.97C283.315 182.97 288.685 179.97 294.055 176.97C300.605 173.31 307.165 169.65 313.715 165.99C320.855 162 327.995 158.01 335.145 154.02C342.395 149.97 349.635 145.92 356.885 141.88C363.645 138.11 370.395 134.33 377.155 130.56C382.835 127.38 388.525 124.21 394.205 121.03C398.315 118.73 402.425 116.44 406.535 114.14C408.075 113.28 409.735 112.5 411.265 111.58C412.485 114.02 413.705 116.47 414.935 118.91C410.995 121.07 407.075 123.23 403.145 125.4Z" fill="#293534"/>
<path d="M45.5249 158.84L43.2449 163.99C43.0849 164.38 42.9249 164.77 42.7649 165.17L46.3249 157.17C46.0549 157.72 45.7849 158.27 45.5249 158.84Z" fill="#293534"/>
<path d="M198.805 108.31L203.055 106.77C202.965 106.8 202.885 106.83 202.795 106.86C202.555 106.95 202.305 107.02 202.065 107.11C203.185 102.62 205.435 98.49 208.645 95.14C210.485 95.25 212.325 94.74 213.725 93.38C214.675 92.46 215.265 91.34 215.575 90.13C215.905 89.91 216.245 89.69 216.595 89.5C216.845 89.37 217.105 89.24 217.365 89.12C217.465 89.08 217.555 89.02 217.655 88.99C217.255 89.13 217.715 88.97 217.795 88.94C218.295 88.75 218.805 88.59 219.325 88.45C219.565 88.39 219.815 88.33 220.055 88.29C220.195 88.26 220.335 88.24 220.475 88.21C220.565 88.2 221.055 88.13 220.605 88.19C220.695 88.18 220.785 88.16 220.865 88.15C221.375 88.94 221.965 89.68 222.635 90.32C225.695 93.28 230.245 94.61 234.325 93.13C237.825 91.86 240.575 89.03 241.765 85.58C243.375 87.01 245.405 87.96 247.565 88.25C249.175 88.47 250.855 88.35 252.385 87.78C253.455 87.38 253.635 86.57 254.025 85.58C254.295 84.9 254.555 84.22 254.815 83.55C257.055 83.9 259.645 84.53 260.355 86.81C261.165 89.39 258.735 89.69 256.835 89.79C254.665 89.91 252.275 90.2 251.195 92.38C249.935 94.91 251.705 97.5 253.365 99.32C254.135 100.16 254.935 100.92 255.375 102C255.925 103.33 255.645 103.98 254.205 104.15C251.805 104.43 249.865 105.11 248.625 107.35C246.205 111.7 248.795 116.74 253.535 117.81C259.445 119.14 264.165 114.58 265.605 109.21C268.735 108.49 271.885 107.82 274.985 107.01C277.575 106.33 279.955 104.69 279.425 101.68C279.185 100.31 278.295 99.15 278.065 97.79C277.885 96.73 278.075 95.62 278.515 94.64C279.235 93.03 280.575 91.72 282.215 91.19C282.705 96.07 287.525 100.03 292.405 99.74C292.015 100.26 291.345 100.75 291.035 101.02C289.925 102 288.725 102.95 287.945 104.24C286.225 107.1 287.755 110.49 290.265 112.27C296.745 116.89 303.815 109.15 306.275 103.66C307.675 100.53 308.445 97.06 307.805 93.64C307.125 90 304.635 87.61 301.595 85.75C299.335 84.37 294.195 81.17 297.245 78.08C298.465 76.85 299.905 76.01 300.835 74.5C301.685 73.12 302.105 71.48 302.145 69.87C302.235 66.16 300.305 62.68 297.155 60.74C294.605 59.17 291.525 58.67 288.565 59.04C290.615 52.42 289.885 44.74 283.405 40.79C280.145 38.8 276.735 38.93 273.235 40.13C271.635 40.68 269.825 41.56 268.095 41.43C266.345 41.3 265.635 39.77 265.995 38.19C266.825 34.58 270.635 32.98 272.875 30.4C274.305 28.76 275.615 26.35 274.975 24.09C273.925 20.4 268.995 19.9 265.825 19.76C261.285 19.56 256.695 20.14 252.215 20.85C250.725 21.09 249.225 21.35 247.745 21.66C244.285 22.38 241.045 23.79 237.745 25.01C235.735 25.75 233.675 26.41 231.555 26.78C229.935 27.06 227.905 27.33 226.755 25.88C225.035 23.71 228.095 21.44 229.805 20.52C230.985 19.89 232.125 19.8 233.395 19.49C234.875 19.14 236.225 18.33 237.335 17.31C239.555 15.26 240.885 12.07 240.665 9.04C240.185 2.45 232.825 -1.41 226.815 0.490002C223.215 1.62 221.215 4.85 218.175 6.85C215.485 8.62 212.305 9.41 209.135 9.78C202.675 10.54 195.835 9.89 189.665 12.29C186.245 13.62 183.765 15.77 181.315 18.44C180.115 19.75 178.775 21.26 176.995 21.74C175.825 22.05 174.085 21.99 173.335 20.87C172.855 20.16 172.995 19.19 173.005 18.38C173.025 17.34 172.965 16.32 172.575 15.34C171.915 13.71 170.555 12.44 168.975 11.72C165.045 9.93 160.225 11.37 156.375 12.72C152.505 14.07 148.845 15.94 145.165 17.75C141.335 19.63 137.445 21.19 133.415 22.61C129.375 24.03 125.325 25.46 121.475 27.37C117.595 29.29 113.955 31.72 110.395 34.17C103.345 39.04 96.6849 44.5 90.5149 50.46C78.7349 61.83 68.9549 75 61.3149 89.49C53.6749 103.98 48.0249 119.58 44.6649 135.62C43.8749 139.42 43.2149 143.24 42.6849 147.09C42.6449 147.42 42.6949 147.71 42.8049 147.96C42.3749 152.95 42.3249 157.95 42.6849 162.96C42.7149 163.42 42.9149 163.77 43.2049 164.01L45.4849 158.86C45.3249 153.68 45.5849 148.49 46.3149 143.36C46.3249 143.28 46.3149 143.2 46.3149 143.12C46.6349 141.2 46.9849 139.28 47.3749 137.37C47.7349 137.31 48.0649 137.07 48.2649 136.61C52.8149 126.26 60.1749 117.19 69.4949 110.76C74.4549 107.34 80.1349 104.17 86.2049 103.42C91.3849 102.78 97.1649 104.29 100.405 108.65C102.175 111.02 102.215 113.73 103.005 116.46C103.705 118.88 105.345 121.1 107.945 121.61C110.465 122.1 112.415 120.43 113.095 118.1C113.625 116.31 113.425 113.33 115.815 112.96C117.935 112.63 120.305 113.96 121.945 115.16C124.155 116.79 126.175 118.58 128.845 119.45C131.275 120.24 133.925 119.91 135.705 117.96C136.465 117.13 137.045 115.79 138.145 115.34C138.945 115.01 139.825 115.28 140.595 115.58C142.885 116.49 144.835 118.1 147.225 118.81C149.705 119.55 152.325 119.01 154.085 117.04C158.295 112.29 155.385 106.49 152.145 102.13C153.875 100.12 154.585 97.6 153.335 95C151.935 92.11 148.975 90.03 146.455 88.2C143.175 85.82 139.725 83.67 136.545 81.15C133.665 78.87 130.675 76.17 129.285 72.83C128.595 71.17 128.355 69.31 128.685 67.58C129.115 65.36 130.215 63.34 131.565 61.54C133.365 61.8 135.165 62.07 136.965 62.33C135.675 64.31 135.435 66.96 136.925 69.02C138.645 71.41 141.795 71.85 144.265 70.74C144.365 71.7 144.465 72.67 144.565 73.63C144.635 74.31 144.985 74.87 145.665 75.08C148.705 76 151.775 75.85 154.905 76.03C158.055 76.21 161.315 77.64 163.005 80.47C163.905 81.98 163.205 84.12 163.035 85.75C162.865 87.36 162.985 88.96 163.795 90.4C165.155 92.81 167.945 94.16 170.635 94.3C171.965 94.37 173.325 94.08 174.505 93.46C175.945 92.7 176.735 91.37 177.765 90.18C178.155 89.73 178.565 89.25 179.045 88.88C179.155 88.8 179.275 88.73 179.385 88.65C179.485 88.84 179.645 89.15 179.685 89.25C180.495 91.31 180.905 93.48 181.955 95.46C183.285 97.98 185.585 99.75 188.425 100.21C191.995 100.79 195.695 99.47 197.595 96.29C198.455 94.85 199.015 93.26 199.775 91.77C200.125 91.08 200.595 90.04 201.335 89.67C201.865 91.72 203.415 93.35 205.335 94.29C202.015 98.16 199.715 102.89 198.775 107.91C198.795 108.02 198.795 108.17 198.805 108.31ZM220.505 79.19C218.655 80.53 218.895 83.2 219.465 85.14C219.485 85.22 219.525 85.29 219.545 85.36C218.225 85.61 216.945 86.02 215.735 86.59C215.545 85.3 215.135 84.05 214.535 82.94C213.015 80.13 210.365 78.26 207.595 76.74C210.265 75.28 212.615 73.36 214.585 71.03C215.365 71.94 216.415 72.62 217.565 73.1C219.635 73.96 221.925 73.96 224.005 74.75C224.885 75.09 225.745 75.57 226.115 76.48C226.345 77.03 226.515 78.06 226.015 78.53C225.465 79.05 224.215 78.64 223.575 78.57C222.495 78.46 221.415 78.53 220.505 79.19ZM58.5249 102.22C64.8949 87.7 73.1949 73.88 83.6949 61.95C89.2249 55.67 95.2449 49.83 101.695 44.5C108.145 39.17 115.115 33.94 122.605 30.15C130.105 26.36 138.355 24.4 145.915 20.71C149.555 18.93 153.155 17.03 156.985 15.67C160.345 14.48 165.835 12.41 168.915 15.18C170.475 16.58 169.855 18.47 170.095 20.32C170.305 21.95 171.205 23.33 172.655 24.11C175.705 25.76 179.115 24.56 181.565 22.45C183.025 21.19 184.195 19.63 185.585 18.29C186.725 17.19 188.035 16.31 189.455 15.62C192.265 14.25 195.465 13.75 198.555 13.48C204.905 12.93 211.565 13.32 217.495 10.63C218.995 9.95 220.365 9.05 221.605 7.98C223.055 6.74 224.305 5.22 225.915 4.18C228.355 2.6 231.595 2.62 234.125 4C236.755 5.43 238.215 8.19 237.525 11.16C236.885 13.94 234.835 16.24 231.955 16.69C227.395 17.4 220.375 22.61 224.395 27.67C226.845 30.75 230.965 30.08 234.335 29.22C238.255 28.22 241.895 26.41 245.755 25.24C249.235 24.18 252.945 23.65 256.545 23.22C260.655 22.73 265.205 22.19 269.285 23.16C270.065 23.35 270.595 23.52 271.215 23.88C271.545 24.07 271.465 23.99 271.755 24.29C271.925 24.47 271.895 24.45 271.895 24.45C271.975 24.56 272.015 24.64 272.035 24.67C272.255 25.21 272.185 25.49 271.975 26.15C271.495 27.67 270.285 28.83 269.115 29.85C266.495 32.12 263.615 34.21 263.005 37.88C262.435 41.29 264.695 44.38 268.265 44.41C271.815 44.44 274.935 41.83 278.495 42.16C281.905 42.48 284.895 45.25 285.995 48.41C287.365 52.3 286.565 56.62 284.915 60.3C284.415 61.4 285.245 62.94 286.605 62.5C292.095 60.76 299.445 63.27 299.125 70.02C299.065 71.32 298.615 72.62 297.755 73.61C296.725 74.8 295.285 75.52 294.355 76.81C292.445 79.47 293.535 82.77 295.535 85.01C297.715 87.45 301.165 88.3 303.275 90.81C305.145 93.03 305.335 96.13 304.735 98.86C304.075 101.84 302.615 104.68 300.605 106.98C298.805 109.04 295.735 111.53 292.805 110.28C291.585 109.76 290.355 108.55 290.185 107.17C290.005 105.74 291.335 104.7 292.285 103.86C294.315 102.07 296.595 100.11 295.215 97.18C294.945 96.6 294.115 96.31 293.525 96.49C289.215 97.82 284.665 93.81 285.185 89.41C285.275 88.61 284.425 87.9 283.685 87.91C278.795 87.98 274.615 92.63 275.005 97.52C275.115 98.93 275.705 100.07 276.195 101.36C276.815 103 276.015 103.57 274.505 104C271.035 104.98 267.445 105.66 263.935 106.48C263.455 106.59 262.985 107.04 262.885 107.53C262.385 110.02 261.215 112.5 259.045 113.95C257.245 115.15 254.855 115.4 252.905 114.4C251.125 113.49 250.265 111.65 250.835 109.72C251.085 108.87 251.565 108.05 252.335 107.57C253.375 106.93 254.685 107.2 255.815 106.88C258.125 106.23 259.015 103.96 258.455 101.77C257.815 99.28 255.795 97.94 254.455 95.9C253.965 95.16 253.325 94.01 254.185 93.29C254.845 92.74 256.025 92.81 256.825 92.76C258.835 92.65 261.005 92.48 262.405 90.84C264.115 88.83 263.635 85.76 262.095 83.8C260.225 81.42 257.055 80.83 254.235 80.43C253.365 80.31 252.715 80.64 252.385 81.48C251.925 82.66 251.455 83.85 250.995 85.03C247.605 85.95 243.895 84.49 242.155 81.36C241.415 80.02 239.395 80.67 239.355 82.12C239.255 85.78 236.645 89.2 233.155 90.33C229.635 91.47 225.815 89.91 223.665 86.98C222.805 85.81 221.555 83.51 222.045 81.99C222.325 81.14 223.385 81.53 224.095 81.63C225.075 81.76 226.045 81.79 226.965 81.39C230.135 80.02 229.755 75.43 227.515 73.4C225.775 71.82 223.375 71.44 221.155 71.01C219.275 70.64 216.735 70.05 216.215 67.9C215.895 66.56 214.165 66.54 213.475 67.54C211.085 70.99 207.685 73.69 203.775 75.23C202.695 75.65 202.145 77.35 203.415 77.97C206.145 79.3 209.045 80.71 211.005 83.11C212.655 85.12 213.675 88.57 211.915 90.84C209.705 93.68 204.095 91.53 204.105 88.05C204.105 87.42 203.645 86.75 203.005 86.6C199.905 85.89 198.105 88.24 196.905 90.75C195.605 93.47 194.735 96.5 191.395 97.18C188.645 97.74 185.995 96.53 184.655 94.1C183.635 92.26 183.275 90.17 182.505 88.22C181.845 86.54 180.595 84.98 178.585 85.65C177.495 86.02 176.605 86.92 175.865 87.75C174.895 88.83 174.155 90.35 172.755 90.93C170.665 91.8 167.765 90.94 166.525 89.05C165.675 87.75 165.965 86.13 166.165 84.68C166.415 82.85 166.655 80.93 165.775 79.22C164.105 75.97 160.305 73.68 156.775 73.16C153.655 72.7 150.515 73.06 147.435 72.37C147.285 70.87 147.125 69.37 146.975 67.87C146.825 66.38 145.065 65.84 144.175 67.11C143.135 68.61 140.405 68.74 139.325 67.2C138.315 65.74 139.135 63.31 140.785 62.72C142.015 62.28 142.395 60.06 140.785 59.83C137.955 59.42 135.125 59 132.305 58.59C131.125 58.42 130.315 58.23 129.515 59.25C129.025 59.88 128.555 60.51 128.125 61.18C126.845 63.18 125.905 65.4 125.615 67.76C125.105 71.93 126.985 75.72 129.645 78.8C132.565 82.17 136.315 84.78 139.955 87.3C143.175 89.53 146.525 91.53 149.185 94.34C149.845 95.04 150.025 95.22 150.495 96.06C150.575 96.2 150.655 96.35 150.725 96.5C150.755 96.57 150.815 96.73 150.835 96.79C150.875 96.95 150.925 97.1 150.965 97.26C150.975 97.32 150.985 97.35 150.995 97.38C150.995 97.41 150.995 97.44 150.995 97.49C150.995 97.65 150.995 97.81 150.995 97.97C150.995 98.03 150.995 98.05 151.005 98.06C150.995 98.09 150.985 98.13 150.965 98.21C150.815 98.77 150.895 98.62 150.695 98.98C150.255 99.78 149.885 100.18 149.105 100.89C148.455 101.48 148.625 102.41 149.105 103.01C150.815 105.15 152.815 107.72 153.175 110.53C153.425 112.47 152.605 115.03 150.685 115.86C148.735 116.71 146.515 115.3 144.855 114.38C143.085 113.39 141.195 112.23 139.105 112.15C136.475 112.05 135.245 113.87 133.705 115.65C131.865 117.78 129.145 116.52 127.145 115.28C123.405 112.95 119.495 108.63 114.545 110.14C112.225 110.85 111.095 112.88 110.625 115.13C110.435 116.06 110.395 117.24 109.855 118.05C109.205 119.03 108.045 118.63 107.265 118.01C105.145 116.31 105.515 112.66 104.645 110.3C103.815 108.02 102.375 105.98 100.505 104.42C91.0849 96.55 78.3649 101.31 69.3049 107.22C61.3649 112.39 54.6349 119.34 49.6749 127.39C52.0249 118.8 54.9549 110.36 58.5249 102.22Z" fill="#775137"/>
<mask id="mask0_1_305" style="mask-type:luminance" maskUnits="userSpaceOnUse" x="30" y="191" width="296" height="150">
<path d="M256.395 194.97C252.645 195.18 248.895 195.4 245.145 195.61C245.125 195.63 245.105 195.64 245.095 195.66C244.455 196.24 243.675 196.13 243.145 195.73C232.545 196.33 221.935 196.94 211.335 197.54C198.065 198.3 184.795 199.05 171.525 199.81C162.955 200.3 154.385 200.79 145.815 201.28C145.425 201.3 145.115 201.19 144.885 201.01C144.815 201.05 144.735 201.09 144.655 201.12C144.475 201.21 144.285 201.26 144.075 201.25C143.545 201.25 143.015 201.25 142.485 201.25C142.325 201.25 142.175 201.22 142.025 201.17C141.805 201.36 141.575 201.55 141.355 201.75C140.405 202.63 139.845 203.65 139.415 204.92C138.395 207.94 139.115 210.75 140.635 213.43C143.165 217.87 146.655 221.82 145.975 227.29C145.615 230.17 144.365 232.89 142.985 235.41C141.745 237.68 140.235 239.9 138.355 241.7C136.605 243.36 134.455 244.73 132.045 245.15C129.155 245.65 126.405 244.85 123.825 243.58C122.535 242.95 120.995 242.28 119.925 241.29C118.895 240.34 118.625 239.09 118.735 237.73C118.855 236.26 119.105 234.78 119.315 233.32C119.465 232.22 119.745 231.13 120.335 230.18C121.765 227.92 124.305 227.95 125.925 229.97C126.635 230.86 127.325 231.46 128.525 231.45C129.495 231.44 130.365 231.01 130.865 230.16C132.215 227.85 130.565 224.96 129.185 223.11C127.465 220.82 125.595 218.78 124.565 216.05C122.925 211.68 123.615 206.8 125.375 202.55C119.365 202.89 113.365 203.23 107.355 203.56C93.5149 204.33 79.6749 205.09 65.8349 205.85C53.8949 206.51 41.9449 207.17 30.0049 207.85C30.3849 211.11 30.8549 214.36 31.4549 217.6C34.1949 232.34 39.1449 246.64 46.1449 259.9C52.9749 272.82 61.6749 284.71 71.9149 295.14C82.0749 305.49 93.6949 314.35 106.365 321.4C119.105 328.49 132.865 333.7 147.125 336.78C161.765 339.94 176.865 340.8 191.775 339.36C206.485 337.95 221.015 334.24 234.605 328.45C247.965 322.76 260.495 315.09 271.635 305.78C282.755 296.5 292.545 285.63 300.585 273.59C308.715 261.41 315.075 248.08 319.345 234.07C323.605 220.11 325.745 205.59 325.805 191C325.605 191.01 325.415 191.02 325.215 191.03C315.955 191.56 306.695 192.09 297.435 192.61C283.755 193.41 270.075 194.19 256.395 194.97Z" fill="white"/>
</mask>
<g mask="url(#mask0_1_305)">
<path d="M142.265 233.27C138.745 233.22 135.115 233.85 131.625 233.15C131.995 233.63 132.355 234.11 132.725 234.6C132.825 230.25 132.265 225.88 131.025 221.7C130.565 220.16 130.115 218.02 128.815 216.94C127.275 215.67 124.775 216.25 122.955 216.34C113.885 216.78 104.815 217.22 95.7449 217.65C95.1549 217.68 94.3949 218.09 94.2949 218.75C93.8449 221.78 93.7349 224.8 94.0449 227.85C94.1348 228.69 94.6649 229.31 95.5449 229.35C102.145 229.67 108.755 229.52 115.335 228.89C114.855 228.52 114.375 228.16 113.885 227.79C114.145 229.48 114.445 231.18 114.665 232.87C114.765 233.62 114.845 233.71 114.095 233.87C113.265 234.04 112.405 234.12 111.565 234.22C108.245 234.64 104.905 234.97 101.565 235.21C94.8049 235.7 88.0149 235.82 81.2349 235.61C79.3049 235.55 79.3149 238.52 81.2349 238.61C84.7449 238.77 88.2549 238.92 91.7649 239.08C91.7649 238.08 91.7649 237.08 91.7649 236.08C88.2449 236.03 84.6149 236.66 81.1249 235.96C81.4949 236.44 81.8549 236.92 82.2249 237.41C82.3249 233.06 81.7649 228.69 80.5249 224.51C80.0649 222.97 79.6149 220.83 78.3149 219.75C76.7749 218.48 74.2749 219.06 72.4549 219.15C63.3849 219.59 54.3149 220.03 45.2449 220.46C44.6549 220.49 43.8949 220.9 43.7949 221.56C43.3449 224.59 43.2349 227.61 43.5449 230.66C43.6349 231.5 44.1649 232.12 45.0449 232.16C51.6449 232.48 58.2549 232.33 64.8349 231.7C64.3549 231.33 63.8749 230.97 63.3849 230.6C63.6449 232.29 63.9449 233.99 64.1649 235.68C64.2649 236.43 64.3449 236.52 63.5949 236.68C62.7649 236.85 61.9049 236.93 61.0649 237.03C57.7449 237.45 54.4049 237.78 51.0649 238.02C44.3049 238.51 37.5149 238.63 30.7349 238.42C28.8049 238.36 28.8049 241.36 30.7349 241.42C38.6549 241.67 46.5849 241.46 54.4849 240.74C56.4349 240.56 58.3849 240.36 60.3349 240.12C61.9449 239.92 63.8749 239.93 65.3749 239.25C66.8349 238.59 67.3549 237.2 67.1749 235.68C66.9449 233.71 66.5849 231.75 66.2849 229.8C66.1949 229.21 65.4349 228.64 64.8349 228.7C58.2549 229.33 51.6449 229.49 45.0449 229.16C45.5449 229.66 46.0449 230.16 46.5449 230.66C46.2649 227.9 46.2849 225.11 46.6849 222.36C46.2049 222.73 45.7249 223.09 45.2349 223.46C53.3149 223.07 61.3949 222.68 69.4849 222.29C71.4649 222.19 73.4449 222.06 75.4249 222C75.6949 221.99 76.2149 221.9 76.4549 222.09C76.6449 222.24 76.8249 222.9 76.8949 223.08C77.2249 223.96 77.5049 224.85 77.7649 225.76C78.8449 229.56 79.3149 233.46 79.2249 237.41C79.2149 238.03 79.6949 238.73 80.3249 238.86C84.1049 239.62 87.9449 239.04 91.7549 239.09C93.6949 239.12 93.6749 236.18 91.7549 236.09C88.2449 235.93 84.7349 235.78 81.2249 235.62C81.2249 236.62 81.2249 237.62 81.2249 238.62C89.1449 238.87 97.0749 238.66 104.975 237.94C106.925 237.76 108.875 237.56 110.825 237.32C112.435 237.12 114.365 237.13 115.865 236.45C117.325 235.79 117.845 234.4 117.665 232.88C117.435 230.91 117.075 228.95 116.775 227C116.685 226.41 115.925 225.84 115.325 225.9C108.745 226.53 102.135 226.69 95.5349 226.36C96.0349 226.86 96.5349 227.36 97.0349 227.86C96.7549 225.1 96.7749 222.31 97.1749 219.56C96.6949 219.93 96.2149 220.29 95.7249 220.66C103.805 220.27 111.885 219.88 119.975 219.49C121.955 219.39 123.935 219.26 125.915 219.2C126.185 219.19 126.705 219.1 126.945 219.29C127.135 219.44 127.315 220.1 127.385 220.28C127.715 221.16 127.995 222.05 128.255 222.96C129.335 226.76 129.805 230.66 129.715 234.61C129.705 235.23 130.185 235.93 130.815 236.06C134.595 236.82 138.435 236.24 142.245 236.29C144.195 236.3 144.195 233.3 142.265 233.27Z" fill="#D85D6F"/>
<path d="M245.915 228.66C242.395 228.61 238.765 229.24 235.275 228.54C235.645 229.02 236.005 229.5 236.375 229.99C236.475 225.64 235.915 221.27 234.675 217.09C234.215 215.55 233.765 213.41 232.465 212.33C230.925 211.06 228.425 211.64 226.605 211.73C217.535 212.17 208.465 212.61 199.395 213.04C198.805 213.07 198.045 213.48 197.945 214.14C197.495 217.17 197.385 220.19 197.695 223.24C197.785 224.08 198.315 224.7 199.195 224.74C205.795 225.06 212.405 224.91 218.985 224.28C218.505 223.91 218.025 223.55 217.535 223.18C217.795 224.87 218.095 226.57 218.315 228.26C218.415 229.01 218.495 229.1 217.745 229.26C216.915 229.43 216.055 229.51 215.215 229.61C211.895 230.03 208.555 230.36 205.215 230.6C198.455 231.09 191.665 231.21 184.885 231C182.955 230.94 182.965 233.91 184.885 234C188.395 234.16 191.905 234.31 195.415 234.47C195.415 233.47 195.415 232.47 195.415 231.47C191.895 231.42 188.265 232.05 184.775 231.35C185.145 231.83 185.505 232.31 185.875 232.8C185.975 228.45 185.415 224.08 184.175 219.9C183.715 218.36 183.265 216.22 181.965 215.14C180.425 213.87 177.925 214.45 176.105 214.54C167.035 214.98 157.965 215.42 148.895 215.85C148.305 215.88 147.545 216.29 147.445 216.95C146.995 219.98 146.885 223 147.195 226.05C147.285 226.89 147.815 227.51 148.695 227.55C155.295 227.87 161.905 227.72 168.485 227.09C168.005 226.72 167.525 226.36 167.035 225.99C167.295 227.68 167.595 229.38 167.815 231.07C167.915 231.82 167.995 231.91 167.245 232.07C166.415 232.24 165.555 232.32 164.715 232.42C161.395 232.84 158.055 233.17 154.715 233.41C147.955 233.9 141.165 234.02 134.385 233.81C132.455 233.75 132.455 236.75 134.385 236.81C142.305 237.06 150.235 236.85 158.135 236.13C160.085 235.95 162.035 235.75 163.985 235.51C165.595 235.31 167.525 235.32 169.025 234.64C170.485 233.98 171.005 232.59 170.825 231.07C170.595 229.1 170.235 227.14 169.935 225.19C169.845 224.6 169.085 224.03 168.485 224.09C161.905 224.72 155.295 224.88 148.695 224.55C149.195 225.05 149.695 225.55 150.195 226.05C149.915 223.29 149.935 220.5 150.335 217.75C149.855 218.12 149.375 218.48 148.885 218.85C156.965 218.46 165.045 218.07 173.135 217.68C175.115 217.58 177.095 217.45 179.075 217.39C179.345 217.38 179.865 217.29 180.105 217.48C180.295 217.63 180.475 218.29 180.545 218.47C180.875 219.35 181.155 220.24 181.415 221.15C182.495 224.95 182.965 228.85 182.875 232.8C182.865 233.42 183.345 234.12 183.975 234.25C187.755 235.01 191.595 234.43 195.405 234.48C197.345 234.51 197.325 231.57 195.405 231.48C191.895 231.32 188.385 231.17 184.875 231.01C184.875 232.01 184.875 233.01 184.875 234.01C192.795 234.26 200.725 234.05 208.625 233.33C210.575 233.15 212.525 232.95 214.475 232.71C216.085 232.51 218.015 232.52 219.515 231.84C220.975 231.18 221.495 229.79 221.315 228.27C221.085 226.3 220.725 224.34 220.425 222.39C220.335 221.8 219.575 221.23 218.975 221.29C212.395 221.92 205.785 222.08 199.185 221.75C199.685 222.25 200.185 222.75 200.685 223.25C200.405 220.49 200.425 217.7 200.825 214.95C200.345 215.32 199.865 215.68 199.375 216.05C207.455 215.66 215.535 215.27 223.625 214.88C225.605 214.78 227.585 214.65 229.565 214.59C229.835 214.58 230.355 214.49 230.595 214.68C230.785 214.83 230.965 215.49 231.035 215.67C231.365 216.55 231.645 217.44 231.905 218.35C232.985 222.15 233.455 226.05 233.365 230C233.355 230.62 233.835 231.32 234.465 231.45C238.245 232.21 242.085 231.63 245.895 231.68C247.845 231.69 247.845 228.69 245.915 228.66Z" fill="#D85D6F"/>
<path d="M346.805 223.83C343.285 223.78 339.655 224.41 336.165 223.71C336.535 224.19 336.895 224.67 337.265 225.16C337.365 220.81 336.805 216.44 335.565 212.26C335.105 210.72 334.655 208.58 333.355 207.5C331.815 206.23 329.315 206.81 327.495 206.9C318.425 207.34 309.355 207.78 300.285 208.21C299.695 208.24 298.935 208.65 298.835 209.31C298.385 212.34 298.275 215.36 298.585 218.41C298.675 219.25 299.205 219.87 300.085 219.91C306.685 220.23 313.295 220.08 319.875 219.45C319.395 219.08 318.915 218.72 318.425 218.35C318.685 220.04 318.985 221.74 319.205 223.43C319.305 224.18 319.385 224.27 318.635 224.43C317.805 224.6 316.945 224.68 316.105 224.78C312.785 225.2 309.445 225.53 306.105 225.77C299.345 226.26 292.555 226.38 285.775 226.17C283.845 226.11 283.855 229.08 285.775 229.17C289.285 229.33 292.795 229.48 296.305 229.64C296.305 228.64 296.305 227.64 296.305 226.64C292.785 226.59 289.155 227.22 285.665 226.52C286.035 227 286.395 227.48 286.765 227.97C286.865 223.62 286.305 219.25 285.065 215.07C284.605 213.53 284.155 211.39 282.855 210.31C281.315 209.04 278.815 209.62 276.995 209.71C267.925 210.15 258.855 210.59 249.785 211.02C249.195 211.05 248.435 211.46 248.335 212.12C247.885 215.15 247.775 218.17 248.085 221.22C248.175 222.06 248.705 222.68 249.585 222.72C256.185 223.04 262.795 222.89 269.375 222.26C268.895 221.89 268.415 221.53 267.925 221.16C268.185 222.85 268.485 224.55 268.705 226.24C268.805 226.99 268.885 227.08 268.135 227.24C267.305 227.41 266.445 227.49 265.605 227.59C262.285 228.01 258.945 228.34 255.605 228.58C248.845 229.07 242.055 229.19 235.275 228.98C233.345 228.92 233.345 231.92 235.275 231.98C243.195 232.23 251.125 232.02 259.025 231.3C260.975 231.12 262.925 230.92 264.875 230.68C266.485 230.48 268.415 230.49 269.915 229.81C271.375 229.15 271.895 227.76 271.715 226.24C271.485 224.27 271.125 222.31 270.825 220.36C270.735 219.77 269.975 219.2 269.375 219.26C262.795 219.89 256.185 220.05 249.585 219.72C250.085 220.22 250.585 220.72 251.085 221.22C250.805 218.46 250.825 215.67 251.225 212.92C250.745 213.29 250.265 213.65 249.775 214.02C257.855 213.63 265.935 213.24 274.025 212.85C276.005 212.75 277.985 212.62 279.965 212.56C280.235 212.55 280.755 212.46 280.995 212.65C281.185 212.8 281.365 213.46 281.435 213.64C281.765 214.52 282.045 215.41 282.305 216.32C283.385 220.12 283.855 224.02 283.765 227.97C283.755 228.59 284.235 229.29 284.865 229.42C288.645 230.18 292.485 229.6 296.295 229.65C298.235 229.68 298.215 226.74 296.295 226.65C292.785 226.49 289.275 226.34 285.765 226.18C285.765 227.18 285.765 228.18 285.765 229.18C293.685 229.43 301.615 229.22 309.515 228.5C311.465 228.32 313.415 228.12 315.365 227.88C316.975 227.68 318.905 227.69 320.405 227.01C321.865 226.35 322.385 224.96 322.205 223.44C321.975 221.47 321.615 219.51 321.315 217.56C321.225 216.97 320.465 216.4 319.865 216.46C313.285 217.09 306.675 217.25 300.075 216.92C300.575 217.42 301.075 217.92 301.575 218.42C301.295 215.66 301.315 212.87 301.715 210.12C301.235 210.49 300.755 210.85 300.265 211.22C308.345 210.83 316.425 210.44 324.515 210.05C326.495 209.95 328.475 209.82 330.455 209.76C330.725 209.75 331.245 209.66 331.485 209.85C331.675 210 331.855 210.66 331.925 210.84C332.255 211.72 332.535 212.61 332.795 213.52C333.875 217.32 334.345 221.22 334.255 225.17C334.245 225.79 334.725 226.49 335.355 226.62C339.135 227.38 342.975 226.8 346.785 226.85C348.735 226.85 348.735 223.85 346.805 223.83Z" fill="#D85D6F"/>
</g>
<path d="M223.575 78.58C224.215 78.65 225.465 79.06 226.015 78.54C226.515 78.07 226.345 77.04 226.115 76.49C225.735 75.58 224.885 75.1 224.005 74.76C221.925 73.97 219.635 73.97 217.565 73.11C216.415 72.63 215.375 71.95 214.585 71.04C212.605 73.37 210.255 75.28 207.595 76.75C210.365 78.27 213.015 80.14 214.535 82.95C215.135 84.05 215.555 85.31 215.735 86.6C216.945 86.03 218.225 85.62 219.545 85.37C219.525 85.3 219.485 85.22 219.465 85.15C218.895 83.21 218.655 80.54 220.505 79.2C221.415 78.53 222.495 78.46 223.575 78.58Z" fill="#9B8370"/>
</svg>
