<svg width="36" height="36" viewBox="0 0 36 36" fill="none" xmlns="http://www.w3.org/2000/svg">
<path d="M9.22 34.17C6.99 30.95 4.37 28.15 1.19 25.88L14.96 20.16L9.22 34.17Z" fill="#293534"/>
<path d="M25.65 0.570007C27.93 4.13001 30.82 7.05001 34.27 9.46001L19.5 15.59L25.65 0.570007Z" fill="#293534"/>
<path d="M11.7 0C12.31 0.11 12.91 0.200009 13.52 0.290009C13.95 0.380009 14.39 0.400002 14.83 0.440002C15.97 0.530002 17.11 0.610007 18.25 0.570007C18.74 0.560007 19.23 0.580006 19.72 0.490005C19.75 0.490005 19.79 0.480011 19.82 0.480011C20.25 0.520011 20.68 0.430013 21.12 0.420013C21.41 0.410013 21.71 0.380012 22 0.340012C22.36 0.290012 22.72 0.220004 23.07 0.160004C23.09 0.160004 23.12 0.150009 23.14 0.150009L17.45 14.06L11.7 0Z" fill="#293534"/>
<path d="M23.44 35.2C23.42 35.2 23.4 35.2 23.38 35.2H23.39C23.36 35.2 23.34 35.19 23.31 35.19C23.09 35.05 22.84 35.04 22.59 35.06C22.49 35.05 22.39 35.04 22.3 35.03C22.3 34.96 22.26 34.96 22.21 34.95C21.19 34.83 20.18 34.7 19.15 34.64C18.17 34.58 17.19 34.53 16.21 34.57C15.16 34.61 14.11 34.66 13.07 34.8C13.01 34.81 12.96 34.81 12.96 34.89C12.65 34.89 12.34 34.97 12.04 35C11.88 34.99 11.72 35 11.56 35.03L17.47 20.59L23.44 35.2Z" fill="#293534"/>
<path d="M0.929993 9.42001C0.979993 9.39001 1.02001 9.35001 1.07001 9.32001C1.13001 9.27001 1.23999 9.26001 1.23999 9.15001C1.32999 9.18001 1.37 9.11001 1.41 9.06001C1.51 8.98001 1.60001 8.90001 1.70001 8.81001C1.97001 8.75001 2.15 8.56001 2.34 8.37001C2.72 8.06001 3.10001 7.74001 3.48001 7.43001C3.82001 7.27001 4.05999 6.98001 4.32999 6.74001C4.43999 6.64001 4.62 6.59001 4.63 6.40001C4.74 6.41001 4.80001 6.36 4.82001 6.25C4.90001 6.26 4.93001 6.22001 4.92001 6.15001C4.98001 6.09001 5.04001 6.03 5.10001 5.97C5.14001 5.98 5.17 5.97001 5.16 5.92001C5.41 5.79001 5.60999 5.60001 5.73999 5.34001C5.82999 5.37001 5.85999 5.34 5.82999 5.25C5.99999 5.22 6.07 5.08001 6.16 4.96001C6.17 4.87001 6.24 4.82 6.31 4.77C6.42 4.81 6.4 4.73001 6.41 4.67001C6.46 4.68001 6.46999 4.67001 6.45999 4.62001C6.50999 4.64001 6.51001 4.61001 6.51001 4.57001C6.57001 4.56001 6.6 4.54001 6.56 4.48001C6.67 4.50001 6.71001 4.44001 6.70001 4.34001C6.85001 4.37001 6.86999 4.23 6.92999 4.16C7.04999 4.01 7.25001 3.92001 7.29001 3.71001C7.31001 3.69001 7.33001 3.67001 7.35001 3.65001C7.40001 3.65001 7.41001 3.62 7.42001 3.58C7.88001 3.01 8.33999 2.45 8.79999 1.88C8.81999 1.86 8.83001 1.85 8.85001 1.83C9.02001 1.73 9.13 1.57 9.19 1.38C9.27 1.26 9.36 1.14 9.44 1.02L15.34 15.44L0.929993 9.42001Z" fill="#293534"/>
<path d="M34.11 25.89C33.71 26.14 33.33 26.43 32.94 26.7C32.74 26.73 32.61 26.88 32.48 27.01C32.02 27.41 31.55 27.8 31.09 28.2C31.06 28.16 31.09 28.21 31.08 28.21C31.06 28.24 31.03 28.26 31 28.29C30.8 28.35 30.68 28.49 30.58 28.66C30.53 28.65 30.52 28.66 30.53 28.71C30.45 28.69 30.44 28.76 30.42 28.8C30.35 28.83 30.33 28.88 30.33 28.94C30.27 28.95 30.17 28.91 30.2 29.04C30.18 29.04 30.17 29.04 30.15 29.04C30.15 29.06 30.15 29.07 30.15 29.09C30.13 29.09 30.12 29.09 30.1 29.09C30.1 29.11 30.1 29.12 30.1 29.14C30.08 29.14 30.07 29.14 30.05 29.14C30.05 29.16 30.05 29.17 30.05 29.19C30.03 29.19 30.02 29.19 30 29.19C30 29.21 30 29.22 30 29.24C29.98 29.24 29.97 29.24 29.95 29.24C29.95 29.26 29.95 29.27 29.95 29.29C29.93 29.29 29.92 29.29 29.9 29.29C29.9 29.31 29.9 29.32 29.9 29.34C29.88 29.34 29.87 29.34 29.85 29.34C29.85 29.36 29.85 29.37 29.85 29.39C29.83 29.39 29.82 29.39 29.8 29.39C29.8 29.41 29.8 29.42 29.8 29.44C29.78 29.44 29.77 29.44 29.75 29.44C29.75 29.46 29.75 29.47 29.75 29.49C29.73 29.49 29.72 29.49 29.7 29.49C29.7 29.51 29.7 29.52 29.7 29.54C29.68 29.54 29.67 29.54 29.65 29.54C29.65 29.56 29.65 29.57 29.65 29.59C29.63 29.59 29.62 29.59 29.6 29.59C29.6 29.61 29.6 29.62 29.6 29.64C29.58 29.64 29.57 29.64 29.55 29.64C29.55 29.66 29.55 29.67 29.55 29.69C29.53 29.69 29.52 29.69 29.5 29.69C29.5 29.71 29.5 29.72 29.5 29.74C29.48 29.74 29.47 29.74 29.45 29.74C29.45 29.76 29.45 29.77 29.45 29.79C29.43 29.79 29.42 29.79 29.4 29.79C29.4 29.81 29.4 29.82 29.4 29.84C29.38 29.84 29.37 29.84 29.35 29.84C29.35 29.86 29.35 29.87 29.35 29.89C29.33 29.89 29.32 29.89 29.3 29.89C29.3 29.91 29.3 29.92 29.3 29.94C29.28 29.94 29.27 29.94 29.25 29.94C29.25 29.96 29.25 29.97 29.25 29.99C29.14 29.94 29.17 30.04 29.14 30.08C29.07 30.13 29 30.18 29 30.27C28.93 30.27 28.86 30.27 28.87 30.37C28.82 30.35 28.82 30.38 28.82 30.42C28.4 30.82 28 31.23 27.68 31.72C27.43 32.02 27.19 32.32 26.94 32.62L26.93 32.63C26.93 32.63 26.93 32.63 26.94 32.62C26.94 32.64 26.93 32.65 26.91 32.66C26.75 32.73 26.68 32.9 26.58 33.02C26.43 33.21 26.31 33.42 26.17 33.62C26.08 33.8 25.95 33.94 25.82 34.09C25.81 34.11 25.8 34.13 25.79 34.15C25.76 34.19 25.73 34.22 25.7 34.26L19.87 20.01L34.11 25.89Z" fill="#293534"/>
<path d="M35.1 11.79C34.38 15.72 34.38 19.64 35.02 23.59L20.86 17.71L35.1 11.79Z" fill="#293534"/>
<path d="M0 23.69C0.16 22.99 0.259985 22.29 0.359985 21.6C0.489985 20.67 0.549996 19.74 0.589996 18.8C0.619996 17.92 0.610007 17.05 0.570007 16.17C0.520007 15.14 0.440007 14.12 0.320007 13.11C0.270007 12.67 0.210015 12.22 0.140015 11.78L14.41 17.71L0 23.69Z" fill="#293534"/>
</svg>
